#N canvas 562 139 769 758 10;
#X text 18 9 Inlets: 1 - Bang a - Tempo de ataque b - Amplitude de
pico c - Tempo de decaimento inicial d - Amplitude de sustentaçao
e - Tempo de sustentaçao f - Tempo de relaxamento final.;
#X obj 56 673 line~;
#X obj 18 149 inlet;
#X msg 378 274 0;
#X obj 85 513 spigot;
#X msg 118 445 0;
#X msg 530 273 0;
#X obj 538 303 pack f f f;
#X obj 363 321 pack f f f;
#X obj 86 542 t l l;
#X obj 113 576 unpack 0 0 0;
#X obj 30 575 unpack 0 0 0;
#X obj 54 597 pack f f;
#X obj 54 622 pipe f f 0;
#X obj 54 647 pack f f;
#X obj 351 450 pack f f f;
#X text 295 225 Mensagem 0: (0 \, 0 \, 0);
#X obj 567 485 pack f f f;
#X obj 557 455 +;
#X text 464 224 Mensagem 1 attack: (0 \, b \, a);
#X text 280 396 Mensagem 2 decay: (a \, d \, c);
#X text 465 393 Mensagem 3 sustain: (a+c \, d \, e);
#X obj 430 661 pack f f f;
#X obj 410 609 +;
#X text 321 547 Mensagem 4 release: (a+c+e \, 0 \, f);
#X obj 428 635 +;
#X msg 457 635 0;
#X obj 55 735 outlet~;
#X obj 79 68 inlet;
#X obj 128 69 inlet;
#X obj 177 66 inlet;
#X obj 223 68 inlet;
#X obj 282 67 inlet;
#X obj 338 70 inlet;
#X obj 70 155 f;
#X obj 127 145 f;
#X obj 179 146 f;
#X obj 224 145 f;
#X obj 279 144 f;
#X obj 337 142 f;
#X msg 141 490 1;
#X obj 23 215 t b b b b b b b;
#X obj 73 185 s \$0-a;
#X obj 41 95 r \$0-snap;
#X obj 95 259 s \$0-snap;
#X obj 379 249 r \$0-snap;
#X obj 527 249 r \$0-snap;
#X obj 456 609 r \$0-snap;
#X obj 120 176 s \$0-b;
#X obj 169 179 s \$0-c;
#X obj 219 184 s \$0-d;
#X obj 272 185 s \$0-e;
#X obj 332 185 s \$0-f;
#X obj 110 241 s \$0-fecha_spigot;
#X obj 81 281 s \$0-empacota;
#X obj 69 302 s \$0-abre_spigot;
#X obj 57 324 s \$0-manda_zero;
#X obj 39 344 s \$0-manda;
#X obj 19 368 s \$0-fecha_spigot;
#X obj 117 414 r \$0-fecha_spigot;
#X obj 141 465 r \$0-abre_spigot;
#X obj 31 396 r \$0-m_0;
#X obj 32 416 r \$0-m_1;
#X obj 32 436 r \$0-m_2;
#X obj 33 460 r \$0-m_3;
#X obj 33 487 r \$0-m_4;
#X obj 273 254 r \$0-manda_zero;
#X obj 466 272 r \$0-manda;
#X obj 566 280 r \$0-b;
#X obj 614 282 r \$0-a;
#X obj 541 335 s \$0-m_1;
#X obj 368 347 s \$0-m_0;
#X obj 327 415 r \$0-a;
#X obj 371 417 r \$0-d;
#X obj 414 418 r \$0-c;
#X obj 263 430 r \$0-manda;
#X obj 353 481 s \$0-m_2;
#X obj 599 418 r \$0-c;
#X obj 557 418 r \$0-a;
#X obj 470 416 r \$0-empacota;
#X obj 638 458 r \$0-e;
#X obj 594 457 r \$0-d;
#X obj 491 462 r \$0-manda;
#X obj 568 508 s \$0-m_3;
#X obj 440 570 r \$0-c;
#X obj 393 572 r \$0-a;
#X obj 295 572 r \$0-empacota;
#X obj 443 589 r \$0-e;
#X obj 487 635 r \$0-f;
#X obj 356 635 r \$0-manda;
#X obj 431 692 s \$0-m_4;
#X connect 1 0 27 0;
#X connect 2 0 41 0;
#X connect 3 0 8 0;
#X connect 3 0 8 1;
#X connect 3 0 8 2;
#X connect 4 0 9 0;
#X connect 5 0 4 1;
#X connect 6 0 7 0;
#X connect 7 0 70 0;
#X connect 8 0 71 0;
#X connect 9 0 11 0;
#X connect 9 1 10 0;
#X connect 10 0 13 2;
#X connect 11 1 12 0;
#X connect 11 2 12 1;
#X connect 12 0 13 0;
#X connect 13 0 14 0;
#X connect 13 1 14 1;
#X connect 14 0 1 0;
#X connect 15 0 76 0;
#X connect 17 0 83 0;
#X connect 18 0 17 0;
#X connect 22 0 90 0;
#X connect 23 0 25 0;
#X connect 25 0 22 0;
#X connect 26 0 22 1;
#X connect 28 0 34 1;
#X connect 29 0 35 1;
#X connect 30 0 36 1;
#X connect 31 0 37 1;
#X connect 32 0 38 1;
#X connect 33 0 39 1;
#X connect 34 0 42 0;
#X connect 35 0 48 0;
#X connect 36 0 49 0;
#X connect 37 0 50 0;
#X connect 38 0 51 0;
#X connect 39 0 52 0;
#X connect 40 0 4 1;
#X connect 41 0 58 0;
#X connect 41 1 57 0;
#X connect 41 2 56 0;
#X connect 41 3 55 0;
#X connect 41 4 54 0;
#X connect 41 5 44 0;
#X connect 41 6 53 0;
#X connect 43 0 34 0;
#X connect 43 0 35 0;
#X connect 43 0 36 0;
#X connect 43 0 37 0;
#X connect 43 0 38 0;
#X connect 43 0 39 0;
#X connect 45 0 3 0;
#X connect 46 0 6 0;
#X connect 47 0 26 0;
#X connect 59 0 5 0;
#X connect 60 0 40 0;
#X connect 61 0 4 0;
#X connect 62 0 4 0;
#X connect 63 0 4 0;
#X connect 64 0 4 0;
#X connect 65 0 4 0;
#X connect 66 0 8 0;
#X connect 67 0 7 0;
#X connect 68 0 7 1;
#X connect 69 0 7 2;
#X connect 72 0 15 0;
#X connect 73 0 15 1;
#X connect 74 0 15 2;
#X connect 75 0 15 0;
#X connect 77 0 18 1;
#X connect 78 0 18 0;
#X connect 79 0 18 0;
#X connect 80 0 17 2;
#X connect 81 0 17 1;
#X connect 82 0 17 0;
#X connect 84 0 23 1;
#X connect 85 0 23 0;
#X connect 86 0 23 0;
#X connect 87 0 25 1;
#X connect 88 0 22 2;
#X connect 89 0 22 0;
