#N canvas 303 147 724 725 10;
#X obj 71 149 inlet~;
#X obj 120 150 inlet~;
#X obj 169 147 inlet~;
#X obj 216 149 inlet~;
#X obj 274 148 inlet~;
#X obj 330 151 inlet~;
#X obj 71 172 s~ a;
#X obj 120 176 s~ b;
#X obj 169 179 s~ c;
#X obj 219 184 s~ d;
#X text 18 9 Inlets: 1 - Bang a - Tempo de ataque b - Amplitude de
pico c - Tempo de decaimento inicial d - Amplitude de sustentaçao
e - Tempo de sustentaçao f - Tempo de relaxamento final.;
#X obj 272 185 s~ e;
#X obj 332 185 s~ f;
#X obj 160 659 tgl 15 0 empty empty empty 17 7 0 10 -262144 -1 -1 1
1;
#X obj 115 756 snapshot~;
#X obj 160 710 t b b;
#X obj 189 752 counter 255;
#X obj 160 689 metro 20;
#X obj 116 788 tabwrite teste;
#N canvas 0 0 450 300 (subpatch) 0;
#X array teste 256 float 2;
#X coords 0 1 256 -1 200 140 1 0 0;
#X restore 303 551 graph;
#X obj 54 719 line~;
#X obj 1165 178 r~ b;
#X obj 1230 175 r~ a;
#X obj 18 149 inlet;
#X msg 878 164 0;
#X obj 1164 201 snapshot~;
#X obj 1231 200 snapshot~;
#X obj 82 490 spigot;
#X msg 134 460 0;
#X msg 145 487 1;
#X obj 86 260 s snap;
#X obj 879 139 r snap;
#X obj 1135 117 r snap;
#X obj 1060 211 r manda;
#X obj 15 353 s manda;
#X obj 53 303 s abre_spigot;
#X obj 101 242 s fecha_spigot;
#X obj 165 452 r fecha_spigot;
#X obj 176 488 r abre_spigot;
#X obj 72 282 s empacota;
#X msg 1125 201 0;
#X obj 1142 252 pack f f f;
#X obj 28 325 s manda_zero;
#X obj 23 215 t b b b b b b;
#X obj 798 143 r manda_zero;
#X obj 863 211 pack f f f;
#X obj 506 150 delay;
#X obj 78 534 t l l;
#X obj 110 595 unpack 0 0 0;
#X obj 15 581 unpack 0 0 0;
#X obj 14 609 pack f f;
#X obj 46 645 pipe f f 0;
#X obj 55 680 pack f f;
#X obj 862 511 snapshot~;
#X obj 929 510 snapshot~;
#X obj 833 427 r snap;
#X obj 722 539 r manda;
#X obj 840 562 pack f f f;
#X obj 779 510 snapshot~;
#X obj 780 487 r~ a;
#X obj 863 488 r~ d;
#X obj 928 485 r~ c;
#X obj 842 593 s m_2;
#X obj 1145 284 s m_1;
#X obj 31 389 r m_0;
#X obj 868 237 s m_0;
#X text 795 115 Mensagem 0: (0 \, 0 \, 0);
#X obj 71 389 r m_1;
#X obj 115 392 r m_2;
#X obj 156 527 print saida_spigot;
#X obj 1139 517 snapshot~;
#X obj 1206 516 snapshot~;
#X obj 1104 430 r snap;
#X obj 1032 596 r manda;
#X obj 1144 622 pack f f f;
#X obj 1002 513 snapshot~;
#X obj 1003 490 r~ a;
#X obj 1140 494 r~ d;
#X obj 1146 653 s m_3;
#X obj 1205 491 r~ e;
#X obj 1066 510 snapshot~;
#X obj 1067 487 r~ c;
#X obj 1032 561 +;
#X obj 171 388 r m_3;
#X text 1101 103 Mensagem 1 attack: (0 \, b \, a);
#X text 815 402 Mensagem 2 decay: (a \, d \, c);
#X text 1092 408 Mensagem 3 sustain: (a+c \, d \, e);
#X obj 844 741 snapshot~;
#X obj 961 749 snapshot~;
#X obj 811 654 r snap;
#X obj 737 820 r manda;
#X obj 849 846 pack f f f;
#X obj 707 737 snapshot~;
#X obj 708 714 r~ a;
#X obj 771 734 snapshot~;
#X obj 772 711 r~ c;
#X obj 736 771 +;
#X text 744 633 Mensagem 4 release: (a+c+e \, 0 \, f);
#X obj 845 718 r~ e;
#X obj 960 724 r~ f;
#X obj 791 802 +;
#X obj 1105 456 t b b;
#X obj 905 670 t b b b;
#X msg 919 748 0;
#X obj 851 877 s m_4;
#X obj 231 397 r m_4;
#X obj 57 823 outlet~;
#X connect 0 0 6 0;
#X connect 1 0 7 0;
#X connect 2 0 8 0;
#X connect 3 0 9 0;
#X connect 4 0 11 0;
#X connect 5 0 12 0;
#X connect 13 0 17 0;
#X connect 14 0 18 0;
#X connect 15 0 14 0;
#X connect 15 1 16 0;
#X connect 16 0 18 1;
#X connect 17 0 15 0;
#X connect 20 0 14 0;
#X connect 20 0 106 0;
#X connect 21 0 25 0;
#X connect 22 0 26 0;
#X connect 23 0 43 0;
#X connect 24 0 45 0;
#X connect 24 0 45 1;
#X connect 24 0 45 2;
#X connect 25 0 41 1;
#X connect 26 0 41 2;
#X connect 27 0 69 0;
#X connect 27 0 47 0;
#X connect 28 0 27 1;
#X connect 29 0 27 1;
#X connect 31 0 24 0;
#X connect 32 0 26 0;
#X connect 32 0 25 0;
#X connect 32 0 40 0;
#X connect 33 0 41 0;
#X connect 37 0 28 0;
#X connect 38 0 29 0;
#X connect 40 0 41 0;
#X connect 41 0 63 0;
#X connect 43 0 34 0;
#X connect 43 1 42 0;
#X connect 43 2 35 0;
#X connect 43 3 39 0;
#X connect 43 4 30 0;
#X connect 43 5 36 0;
#X connect 44 0 45 0;
#X connect 45 0 65 0;
#X connect 47 0 49 0;
#X connect 47 1 48 0;
#X connect 48 0 51 2;
#X connect 49 1 50 0;
#X connect 49 2 50 1;
#X connect 50 0 51 0;
#X connect 51 0 52 0;
#X connect 51 1 52 1;
#X connect 52 0 20 0;
#X connect 53 0 57 1;
#X connect 54 0 57 2;
#X connect 55 0 54 0;
#X connect 55 0 53 0;
#X connect 55 0 58 0;
#X connect 56 0 57 0;
#X connect 57 0 62 0;
#X connect 58 0 57 0;
#X connect 59 0 58 0;
#X connect 60 0 53 0;
#X connect 61 0 54 0;
#X connect 64 0 27 0;
#X connect 67 0 27 0;
#X connect 68 0 27 0;
#X connect 70 0 74 1;
#X connect 71 0 74 2;
#X connect 72 0 101 0;
#X connect 73 0 74 0;
#X connect 74 0 78 0;
#X connect 75 0 82 0;
#X connect 76 0 75 0;
#X connect 77 0 70 0;
#X connect 79 0 71 0;
#X connect 80 0 82 1;
#X connect 81 0 80 0;
#X connect 82 0 74 0;
#X connect 83 0 27 0;
#X connect 87 0 100 1;
#X connect 88 0 91 2;
#X connect 89 0 102 0;
#X connect 90 0 91 0;
#X connect 91 0 104 0;
#X connect 92 0 96 0;
#X connect 93 0 92 0;
#X connect 94 0 96 1;
#X connect 95 0 94 0;
#X connect 96 0 100 0;
#X connect 98 0 87 0;
#X connect 99 0 88 0;
#X connect 100 0 91 0;
#X connect 101 0 75 0;
#X connect 101 1 71 0;
#X connect 101 1 70 0;
#X connect 101 1 80 0;
#X connect 102 0 92 0;
#X connect 102 1 87 0;
#X connect 102 1 94 0;
#X connect 102 2 88 0;
#X connect 102 2 103 0;
#X connect 103 0 91 1;
#X connect 105 0 27 0;
