#N canvas 940 160 450 300 10;
#X obj 138 162 expr~ (1-exp($f2*$v1))/(1-exp($f2));
#X obj 393 26 inlet;
#X obj 13 12 inlet;
#X obj 140 196 outlet~;
#X obj 138 133 ADSRlinear~;
#X obj 79 21 inlet;
#X obj 128 22 inlet;
#X obj 177 19 inlet;
#X obj 224 21 inlet;
#X obj 282 20 inlet;
#X obj 338 23 inlet;
#X obj 123 69 inverte;
#X obj 19 46 t b b;
#X obj 182 80 inverte;
#X obj 318 127 sel 0;
#X connect 0 0 3 0;
#X connect 1 0 11 2;
#X connect 1 0 13 2;
#X connect 1 0 14 0;
#X connect 2 0 12 0;
#X connect 4 0 0 0;
#X connect 5 0 4 1;
#X connect 6 0 11 1;
#X connect 7 0 4 3;
#X connect 8 0 13 1;
#X connect 9 0 4 5;
#X connect 10 0 4 6;
#X connect 11 0 4 2;
#X connect 12 0 4 0;
#X connect 12 1 11 0;
#X connect 12 1 13 0;
#X connect 13 0 4 4;
#X connect 14 1 0 1;
