#N canvas 167 84 769 796 10;
#X obj 66 683 line~;
#X obj 28 159 inlet;
#X msg 388 284 0;
#X obj 95 523 spigot;
#X msg 128 455 0;
#X msg 572 283 0;
#X obj 580 313 pack f f f;
#X obj 373 331 pack f f f;
#X obj 96 552 t l l;
#X obj 123 586 unpack 0 0 0;
#X obj 40 585 unpack 0 0 0;
#X obj 64 607 pack f f;
#X obj 64 632 pipe f f 0;
#X obj 64 657 pack f f;
#X obj 397 534 pack f f f;
#X msg 424 508 0;
#X obj 65 745 outlet~;
#X obj 89 78 inlet;
#X obj 138 79 inlet;
#X obj 187 76 inlet;
#X obj 233 78 inlet;
#X obj 80 165 f;
#X obj 137 155 f;
#X obj 189 156 f;
#X obj 234 155 f;
#X msg 151 500 1;
#X obj 125 707 print;
#X obj 83 195 s \$0-a;
#X obj 51 105 r \$0-snap;
#X obj 94 272 s \$0-snap;
#X obj 389 259 r \$0-snap;
#X obj 569 259 r \$0-snap;
#X obj 423 482 r \$0-snap;
#X obj 130 186 s \$0-b;
#X obj 179 189 s \$0-c;
#X obj 229 194 s \$0-d;
#X obj 109 254 s \$0-fecha_spigot;
#X obj 79 312 s \$0-abre_spigot;
#X obj 67 334 s \$0-manda_zero;
#X obj 49 354 s \$0-manda;
#X obj 29 378 s \$0-fecha_spigot;
#X obj 127 424 r \$0-fecha_spigot;
#X obj 151 475 r \$0-abre_spigot;
#X obj 41 406 r \$0-m_0;
#X obj 42 426 r \$0-m_1;
#X obj 42 446 r \$0-m_2;
#X obj 283 264 r \$0-manda_zero;
#X obj 508 282 r \$0-manda;
#X obj 583 345 s \$0-m_1;
#X obj 378 357 s \$0-m_0;
#X obj 323 508 r \$0-manda;
#X text 28 19 Inlets: 1 - Bang a - Amplitude inicial b - Tempo de ataque
c - Amplitude de pico d - Tempo de relaxamento final.;
#X text 305 235 Mensagem 0: (0 \, a \, 0);
#X text 506 234 Mensagem 1 attack: (0 \, c \, b);
#X text 287 420 Mensagem 2 release: (b \, 0 \, d);
#X obj 409 285 r \$0-a;
#X obj 608 290 r \$0-c;
#X obj 656 292 r \$0-b;
#X obj 454 507 r \$0-d;
#X obj 397 463 r \$0-b;
#X obj 398 565 s \$0-m_2;
#X obj 33 225 t b b b b b b;
#X connect 0 0 16 0;
#X connect 1 0 61 0;
#X connect 2 0 7 0;
#X connect 2 0 7 2;
#X connect 3 0 8 0;
#X connect 4 0 3 1;
#X connect 5 0 6 0;
#X connect 6 0 48 0;
#X connect 7 0 49 0;
#X connect 8 0 10 0;
#X connect 8 1 9 0;
#X connect 9 0 12 2;
#X connect 10 1 11 0;
#X connect 10 2 11 1;
#X connect 11 0 12 0;
#X connect 12 0 13 0;
#X connect 12 1 13 1;
#X connect 13 0 0 0;
#X connect 13 0 26 0;
#X connect 14 0 60 0;
#X connect 15 0 14 1;
#X connect 17 0 21 1;
#X connect 18 0 22 1;
#X connect 19 0 23 1;
#X connect 20 0 24 1;
#X connect 21 0 27 0;
#X connect 22 0 33 0;
#X connect 23 0 34 0;
#X connect 24 0 35 0;
#X connect 25 0 3 1;
#X connect 28 0 21 0;
#X connect 28 0 22 0;
#X connect 28 0 23 0;
#X connect 28 0 24 0;
#X connect 30 0 2 0;
#X connect 31 0 5 0;
#X connect 32 0 15 0;
#X connect 41 0 4 0;
#X connect 42 0 25 0;
#X connect 43 0 3 0;
#X connect 44 0 3 0;
#X connect 45 0 3 0;
#X connect 46 0 7 0;
#X connect 47 0 6 0;
#X connect 50 0 14 0;
#X connect 55 0 7 1;
#X connect 56 0 6 1;
#X connect 57 0 6 2;
#X connect 58 0 14 2;
#X connect 59 0 14 0;
#X connect 61 0 40 0;
#X connect 61 1 39 0;
#X connect 61 2 38 0;
#X connect 61 3 37 0;
#X connect 61 4 29 0;
#X connect 61 5 36 0;
