#N canvas 709 130 635 604 10;
#X obj 0 99 inlet;
#X obj 68 115 inlet;
#X obj 117 116 inlet;
#X obj 166 113 inlet;
#X obj 212 115 inlet;
#X obj 372 52 inlet;
#X text 7 56 Inlets: 1 - Bang a - Amplitude inicial b - Tempo de ataque
c - Amplitude de Pico d - Tempo de relaxamento e - beta.;
#X obj 147 326 expr~ (1-exp($f2*$v1))/(1-exp($f2));
#X obj 145 517 outlet~;
#X obj 82 200 inverte;
#X obj 157 196 inverte;
#X obj 147 302 ARlinear~;
#X obj 371 89 * -1;
#X obj 357 113 f;
#X obj 392 162 f;
#X text 209 369 Isso eh feito pra fazer -beta virar +beta quando o
envelope chega no pico.;
#X obj 36 238 s \$0-comeca_metro;
#X obj 392 134 r \$0-inverte_beta;
#X obj 357 18 r \$0-inicia_beta;
#X obj 44 295 s \$0-inicia_beta;
#X obj 336 467 delay;
#X obj 361 420 r \$0-seta_delay;
#X obj 332 403 r \$0-dispara_delay;
#X obj 116 143 t f f;
#X obj 118 166 s \$0-seta_delay;
#X obj -6 142 t b b b b b b;
#X obj -17 204 s \$0-dispara_delay;
#X obj 336 493 s \$0-inverte_beta;
#X obj 327 304 sel 0;
#X connect 0 0 25 0;
#X connect 1 0 9 1;
#X connect 2 0 23 0;
#X connect 3 0 10 1;
#X connect 4 0 11 4;
#X connect 5 0 12 0;
#X connect 5 0 14 1;
#X connect 7 0 8 0;
#X connect 9 0 11 1;
#X connect 10 0 11 3;
#X connect 11 0 7 0;
#X connect 12 0 13 0;
#X connect 13 0 10 2;
#X connect 13 0 9 2;
#X connect 13 0 28 0;
#X connect 14 0 28 0;
#X connect 17 0 14 0;
#X connect 18 0 13 0;
#X connect 20 0 27 0;
#X connect 21 0 20 1;
#X connect 22 0 20 0;
#X connect 23 0 24 0;
#X connect 23 1 11 2;
#X connect 25 0 26 0;
#X connect 25 1 11 0;
#X connect 25 2 9 0;
#X connect 25 3 10 0;
#X connect 25 4 16 0;
#X connect 25 5 19 0;
#X connect 28 1 7 1;
