#N canvas 161 82 635 818 10;
#X obj 31 72 inlet;
#X obj 99 88 inlet;
#X obj 148 89 inlet;
#X obj 197 86 inlet;
#X obj 243 88 inlet;
#X obj 434 34 inlet;
#X text 38 29 Inlets: 1 - Bang a - Amplitude inicial b - Tempo de ataque
c - Amplitude de Pico d - Tempo de relaxamento e - beta.;
#X obj 131 407 expr~ (1-exp($f2*$v1))/(1-exp($f2));
#X obj 127 488 outlet~;
#X obj 393 244 sel 0;
#X obj 113 173 inverte;
#X obj 188 169 inverte;
#X obj 178 275 ARlinear~;
#X obj 200 314 mostra_envelope~;
#X obj 404 70 * -1;
#X obj 270 196 print beta;
#X obj 347 548 snapshot~;
#X floatatom 347 575 5 0 0 0 - - -;
#X obj 346 521 metro 100;
#X obj 345 486 tgl 15 0 empty empty empty 17 7 0 10 -262144 -1 -1 1
1;
#X obj 356 626 sel 1;
#X obj 357 664 t b b;
#X obj 385 692 s fecha_spigot;
#X obj 378 598 spigot;
#X obj 438 541 r fecha_spigot;
#X msg 439 567 0;
#X obj 420 495 r abre_spigot;
#X msg 421 521 1;
#X obj 67 211 s abre_spigot;
#X obj 359 717 s inverte_beta;
#X obj 322 744 print inverteu;
#X obj 381 123 f;
#X obj 457 271 f;
#X obj 485 217 r inverte_beta;
#X obj 431 331 sel 0;
#X obj 75 268 s inicia_beta;
#X obj 25 115 t b b b b b;
#X obj 406 8 r inicia_beta;
#X text 95 598 Isso eh feito pra fazer -beta virar +beta quando o envelope
chega no pico.;
#X obj 278 445 expr~ $v1 \; if( $v1>(0.99*$f2) \, 1 \, 0);
#X connect 0 0 36 0;
#X connect 1 0 10 1;
#X connect 2 0 12 2;
#X connect 3 0 11 1;
#X connect 3 0 39 1;
#X connect 4 0 12 4;
#X connect 5 0 14 0;
#X connect 5 0 32 1;
#X connect 7 0 8 0;
#X connect 7 0 39 0;
#X connect 9 1 7 1;
#X connect 10 0 12 1;
#X connect 11 0 12 3;
#X connect 12 0 7 0;
#X connect 12 0 13 0;
#X connect 14 0 31 0;
#X connect 16 0 17 0;
#X connect 17 0 23 0;
#X connect 18 0 16 0;
#X connect 19 0 18 0;
#X connect 20 0 21 0;
#X connect 20 0 30 0;
#X connect 21 0 29 0;
#X connect 21 1 22 0;
#X connect 23 0 20 0;
#X connect 24 0 25 0;
#X connect 25 0 23 1;
#X connect 26 0 27 0;
#X connect 27 0 23 1;
#X connect 31 0 9 0;
#X connect 31 0 15 0;
#X connect 31 0 11 2;
#X connect 31 0 10 2;
#X connect 32 0 34 0;
#X connect 33 0 32 0;
#X connect 34 1 7 1;
#X connect 36 0 12 0;
#X connect 36 1 10 0;
#X connect 36 2 11 0;
#X connect 36 3 28 0;
#X connect 36 4 35 0;
#X connect 37 0 31 0;
#X connect 39 1 16 0;
