#N canvas 181 95 635 818 10;
#X obj 31 72 inlet;
#X obj 99 88 inlet;
#X obj 148 89 inlet;
#X obj 197 86 inlet;
#X obj 243 88 inlet;
#X obj 434 34 inlet;
#X text 38 29 Inlets: 1 - Bang a - Amplitude inicial b - Tempo de ataque
c - Amplitude de Pico d - Tempo de relaxamento e - beta.;
#X obj 131 407 expr~ (1-exp($f2*$v1))/(1-exp($f2));
#X obj 127 488 outlet~;
#X obj 393 244 sel 0;
#X obj 113 173 inverte;
#X obj 188 169 inverte;
#X obj 178 275 ARlinear~;
#X obj 200 314 mostra_envelope~;
#X obj 404 70 * -1;
#X obj 450 516 snapshot~;
#X floatatom 450 543 5 0 0 0 - - -;
#X obj 451 566 sel 1;
#X obj 451 591 t b b;
#X msg 497 453 0;
#X obj 381 123 f;
#X obj 457 271 f;
#X obj 431 331 sel 0;
#X obj 25 115 t b b b b b;
#X text 15 598 Isso eh feito pra fazer -beta virar +beta quando o envelope
chega no pico.;
#X obj 449 488 metro 10;
#X obj 496 427 r \$0-para_metro;
#X obj 491 403 r \$0-comeca_metro;
#X obj 67 211 s \$0-comeca_metro;
#X obj 479 619 s \$0-para_metro;
#X obj 450 639 s \$0-inverte_beta;
#X obj 485 217 r \$0-inverte_beta;
#X obj 406 8 r \$0-inicia_beta;
#X obj 75 268 s \$0-inicia_beta;
#X obj 278 445 expr~ $v1 \; if( $v1>(0.999*$f2) \, 1 \, 0);
#X connect 0 0 23 0;
#X connect 1 0 10 1;
#X connect 2 0 12 2;
#X connect 3 0 11 1;
#X connect 3 0 34 1;
#X connect 4 0 12 4;
#X connect 5 0 14 0;
#X connect 5 0 21 1;
#X connect 7 0 8 0;
#X connect 7 0 34 0;
#X connect 9 1 7 1;
#X connect 10 0 12 1;
#X connect 11 0 12 3;
#X connect 12 0 7 0;
#X connect 12 0 13 0;
#X connect 14 0 20 0;
#X connect 15 0 16 0;
#X connect 16 0 17 0;
#X connect 17 0 18 0;
#X connect 18 0 30 0;
#X connect 18 1 29 0;
#X connect 19 0 25 0;
#X connect 20 0 9 0;
#X connect 20 0 11 2;
#X connect 20 0 10 2;
#X connect 21 0 22 0;
#X connect 22 1 7 1;
#X connect 23 0 12 0;
#X connect 23 1 10 0;
#X connect 23 2 11 0;
#X connect 23 3 28 0;
#X connect 23 4 33 0;
#X connect 25 0 15 0;
#X connect 26 0 19 0;
#X connect 27 0 25 0;
#X connect 31 0 21 0;
#X connect 32 0 20 0;
#X connect 34 1 15 0;
