#N canvas 871 212 450 565 10;
#X obj 48 52 inlet~;
#X obj 172 49 inlet~;
#X text 43 22 amplitude;
#X obj 165 202 FMdinamica~;
#X obj 164 229 outlet~;
#X text 154 23 freq portadora;
#X obj 280 18 loadbang;
#X obj 213 89 expr~ $v1 * $f2;
#X obj 47 76 s~ \$0-amplitude;
#X obj 71 139 r~ \$0-amplitude;
#X obj 219 150 r~ \$0-amplitude;
#X obj 219 172 calcula_indice~;
#X obj 282 47 expr 80/55;
#X connect 0 0 8 0;
#X connect 1 0 3 1;
#X connect 1 0 7 0;
#X connect 3 0 4 0;
#X connect 6 0 12 0;
#X connect 7 0 3 2;
#X connect 9 0 3 0;
#X connect 10 0 11 0;
#X connect 11 0 3 3;
#X connect 11 0 3 4;
#X connect 12 0 7 1;
