#N canvas 156 347 450 300 10;
#X obj 44 46 inlet~;
#X obj 168 43 inlet~;
#X obj 288 41 inlet~;
#X text 286 15 detune;
#X text 39 16 amplitude;
#X text 145 16 freq fundamental;
#X obj 202 216 FMdinamica~;
#X obj 269 106 loadbang;
#X obj 261 166 sig~;
#X obj 317 164 sig~;
#X obj 211 111 +~;
#X obj 201 243 outlet~;
#X msg 261 140 4;
#X msg 317 138 2;
#X obj 163 112 *~ 1.5;
#X connect 0 0 6 0;
#X connect 1 0 10 0;
#X connect 1 0 14 0;
#X connect 2 0 10 1;
#X connect 6 0 11 0;
#X connect 7 0 12 0;
#X connect 7 0 13 0;
#X connect 8 0 6 3;
#X connect 9 0 6 4;
#X connect 10 0 6 2;
#X connect 12 0 8 0;
#X connect 13 0 9 0;
#X connect 14 0 6 1;
