#N canvas 654 265 783 559 10;
#X obj 44 65 inlet~;
#X text 39 50 Amplitude;
#X obj 106 303 *~;
#X obj 105 347 outlet~;
#X obj 158 66 inlet~;
#X obj 208 66 inlet~;
#X obj 424 41 inlet~;
#X obj 208 150 osc~;
#X obj 209 180 *~;
#X obj 158 253 osc~;
#X obj 157 218 +~;
#X text 172 32 Frequencia de modulacao (m);
#X text 129 15 Frequencia Portadora (c);
#X text 417 23 Indice 1;
#X obj 498 40 inlet~;
#X text 491 22 Indice 2;
#X obj 45 90 s~ \$0-amp;
#X obj 372 117 r~ \$0-amp;
#X obj 47 133 r~ \$0-amp-1;
#X obj 374 182 s~ \$0-amp-1;
#X obj 375 258 expr~ ($v1*$v2) + ($v1* ($v3 - $v2));
#X obj 376 289 s~ \$0-amp-2;
#X obj 372 149 expr~ ($v1*$v3) + (1 - $v1)*$v2;
#X obj 251 150 r~ \$0-amp-2;
#X obj 209 94 s~ \$0-fm;
#X obj 209 127 r~ \$0-fm;
#X obj 424 67 s~ \$0-i1;
#X obj 498 67 s~ \$0-i2;
#X obj 464 122 r~ \$0-i1;
#X obj 556 125 r~ \$0-i2;
#X obj 482 234 r~ \$0-i1;
#X obj 588 235 r~ \$0-i2;
#X obj 373 228 r~ \$0-fm;
#X connect 0 0 16 0;
#X connect 2 0 3 0;
#X connect 4 0 10 0;
#X connect 5 0 24 0;
#X connect 6 0 26 0;
#X connect 7 0 8 0;
#X connect 8 0 10 1;
#X connect 9 0 2 1;
#X connect 10 0 9 0;
#X connect 14 0 27 0;
#X connect 17 0 22 0;
#X connect 18 0 2 0;
#X connect 20 0 21 0;
#X connect 22 0 19 0;
#X connect 23 0 8 1;
#X connect 25 0 7 0;
#X connect 28 0 22 1;
#X connect 29 0 22 2;
#X connect 30 0 20 1;
#X connect 31 0 20 2;
#X connect 32 0 20 0;
