#N canvas 617 408 588 367 10;
#X obj 36 6 inlet~;
#X text 31 -9 Amplitude;
#X obj 37 164 *~;
#X obj 37 196 outlet~;
#X obj 106 5 inlet~;
#X obj 156 5 inlet~;
#X obj 394 -4 inlet~;
#X obj 157 43 osc~;
#X obj 157 80 *~;
#X obj 106 136 osc~;
#X obj 106 107 +~;
#X text 118 -16 Frequencia de modulacao (m);
#X text 68 -35 Frequencia Portadora (c);
#X text 387 -22 Indice 1;
#X obj 484 -4 inlet~;
#X text 477 -22 Indice 2;
#X obj 302 49 r~ \$0-amp;
#X obj 302 81 expr~ ($v1*$v3) + (1 - $v1)*$v2;
#X obj 303 110 s~ \$0-indice;
#X obj 200 43 r~ \$0-indice;
#X obj 35 29 s~ \$0-amp;
#X obj 37 129 r~ \$0-amp;
#X connect 0 0 20 0;
#X connect 2 0 3 0;
#X connect 4 0 10 0;
#X connect 5 0 7 0;
#X connect 6 0 17 1;
#X connect 7 0 8 0;
#X connect 8 0 10 1;
#X connect 9 0 2 1;
#X connect 10 0 9 0;
#X connect 14 0 17 2;
#X connect 16 0 17 0;
#X connect 17 0 18 0;
#X connect 19 0 8 1;
#X connect 21 0 2 0;
