#N canvas 307 289 450 300 10;
#X obj 45 40 inlet~;
#X obj 169 37 inlet~;
#X obj 289 35 inlet~;
#X text 287 9 detune;
#X text 40 10 amplitude;
#X text 146 10 freq fundamental;
#X obj 203 210 FMdinamica~;
#X obj 270 100 loadbang;
#X msg 262 134 0;
#X obj 262 160 sig~;
#X obj 318 158 sig~;
#X obj 212 105 +~;
#X obj 202 237 outlet~;
#X obj 169 105 *~ 5;
#X msg 318 132 1.5;
#X connect 0 0 6 0;
#X connect 1 0 11 0;
#X connect 1 0 13 0;
#X connect 2 0 11 1;
#X connect 6 0 12 0;
#X connect 7 0 8 0;
#X connect 7 0 14 0;
#X connect 8 0 9 0;
#X connect 9 0 6 3;
#X connect 10 0 6 4;
#X connect 11 0 6 2;
#X connect 13 0 6 1;
#X connect 14 0 10 0;
