#N canvas 399 344 450 300 10;
#X obj 48 45 inlet~;
#X obj 172 42 inlet~;
#X text 43 15 amplitude;
#X obj 206 215 FMdinamica~;
#X obj 273 105 loadbang;
#X obj 265 165 sig~;
#X obj 321 163 sig~;
#X obj 205 242 outlet~;
#X text 154 16 freq portadora;
#X msg 265 139 0;
#X msg 321 137 10;
#X obj 282 40 expr sqrt(2);
#X obj 280 11 loadbang;
#X obj 213 82 expr~ $v1 * $f2;
#X obj 338 207 snapshot~;
#X obj 340 236 print;
#X obj 378 173 bng 15 250 50 0 empty empty empty 17 7 0 10 -262144
-1 -1;
#X connect 0 0 3 0;
#X connect 1 0 3 1;
#X connect 1 0 13 0;
#X connect 3 0 7 0;
#X connect 4 0 9 0;
#X connect 4 0 10 0;
#X connect 5 0 3 3;
#X connect 6 0 3 4;
#X connect 9 0 5 0;
#X connect 10 0 6 0;
#X connect 11 0 13 1;
#X connect 12 0 11 0;
#X connect 13 0 3 2;
#X connect 13 0 14 0;
#X connect 14 0 15 0;
#X connect 16 0 14 0;
