#N canvas 272 433 413 402 10;
#X obj 91 56 inlet~;
#X text 86 41 Amplitude;
#X obj 96 293 *~;
#X obj 95 337 outlet~;
#X obj 148 56 inlet~;
#X obj 198 56 inlet~;
#X obj 254 59 inlet~;
#X obj 199 100 osc~;
#X obj 200 130 *~;
#X obj 149 203 osc~;
#X obj 148 168 +~;
#X text 222 40 Peak Deviation (d);
#X text 162 22 Frequencia de modulacao (m);
#X text 119 5 Frequencia Portadora (c);
#X connect 0 0 2 0;
#X connect 2 0 3 0;
#X connect 4 0 10 0;
#X connect 5 0 7 0;
#X connect 6 0 8 1;
#X connect 7 0 8 0;
#X connect 8 0 10 1;
#X connect 9 0 2 1;
#X connect 10 0 9 0;
