#N canvas 775 143 450 300 10;
#X obj 45 50 inlet~;
#X obj 169 47 inlet~;
#X text 40 20 amplitude;
#X obj 203 220 FMdinamica~;
#X obj 270 110 loadbang;
#X obj 262 170 sig~;
#X obj 318 168 sig~;
#X obj 202 247 outlet~;
#X text 151 21 freq portadora;
#X msg 262 144 0;
#X obj 279 45 expr sqrt(2);
#X obj 277 16 loadbang;
#X obj 210 87 expr~ $v1 * $f2;
#X msg 318 142 2;
#X connect 0 0 3 0;
#X connect 1 0 3 1;
#X connect 1 0 12 0;
#X connect 3 0 7 0;
#X connect 4 0 9 0;
#X connect 4 0 13 0;
#X connect 5 0 3 3;
#X connect 6 0 3 4;
#X connect 9 0 5 0;
#X connect 10 0 12 1;
#X connect 11 0 10 0;
#X connect 12 0 3 2;
#X connect 13 0 6 0;
