#N canvas 322 507 450 300 10;
#X obj 359 42 inlet;
#X obj 115 38 inlet;
#X obj 115 116 expr ln( 1 - $f1*(1 - exp($f2)) ) / $f2;
#X obj 118 148 outlet;
#X obj 314 82 sel 0;
#X obj 21 31 inlet;
#X obj 115 85 f;
#X connect 0 0 4 0;
#X connect 1 0 6 1;
#X connect 2 0 3 0;
#X connect 4 1 2 1;
#X connect 5 0 6 0;
#X connect 6 0 2 0;
