#N canvas 186 87 509 818 10;
#X obj 45 34 inlet;
#X obj 119 34 inlet;
#X obj 229 34 inlet;
#X obj 85 556 outlet~;
#X text 44 14 Disparo;
#X text 114 14 Duracao;
#X text 225 13 Beta;
#X obj 64 221 f;
#X obj 89 297 sig~;
#X msg 64 83 0;
#X obj 91 271 moses;
#X obj 118 297 bang;
#X obj 64 272 + 1;
#X obj 64 245 t f f;
#X msg 12 150 0;
#X obj 88 396 expr~ exp(-$v1*$f2/1000);
#X obj 12 180 metro 1;
#X obj 87 521 multiplex~;
#X obj 142 423 loadbang;
#X msg 143 446 0;
#X obj 144 468 sig~;
#X msg 118 346 1;
#X obj 45 56 t b b b;
#X obj 89 104 s escolhe_sinal;
#X obj 95 497 r escolhe_sinal;
#X obj 118 372 s escolhe_sinal;
#X obj 118 322 t b b;
#X msg 90 83 0;
#X obj 145 346 s para_metro;
#X obj 13 125 r para_metro;
#X connect 0 0 22 0;
#X connect 1 0 10 1;
#X connect 2 0 15 1;
#X connect 7 0 13 0;
#X connect 8 0 15 0;
#X connect 9 0 7 0;
#X connect 10 0 8 0;
#X connect 10 1 11 0;
#X connect 11 0 26 0;
#X connect 12 0 7 1;
#X connect 13 0 12 0;
#X connect 13 1 10 0;
#X connect 14 0 16 0;
#X connect 15 0 17 0;
#X connect 16 0 7 0;
#X connect 17 0 3 0;
#X connect 18 0 19 0;
#X connect 19 0 20 0;
#X connect 20 0 17 1;
#X connect 21 0 25 0;
#X connect 22 0 16 0;
#X connect 22 1 9 0;
#X connect 22 2 27 0;
#X connect 24 0 17 0;
#X connect 26 0 21 0;
#X connect 26 1 28 0;
#X connect 27 0 23 0;
#X connect 29 0 14 0;
