#N canvas 935 293 450 453 10;
#X obj 81 154 line~;
#X obj 93 217 bng 15 250 50 0 empty empty empty 17 7 0 10 -262144 -1
-1;
#X obj 161 236 ADSRlinear~;
#X obj 139 158 line~;
#X obj 191 156 line~;
#X obj 249 160 line~;
#X obj 299 159 line~;
#X obj 357 163 line~;
#X obj 180 30 bng 15 250 50 0 empty empty empty 17 7 0 10 -262144 -1
-1;
#X msg 100 102 1000;
#X msg 197 107 500;
#X msg 155 97 1;
#X msg 242 109 0.8;
#X msg 280 110 2000;
#X msg 322 108 700;
#X obj 74 292 osc~ 440;
#X obj 134 342 *~;
#X obj 130 379 output~;
#X connect 0 0 2 1;
#X connect 1 0 2 0;
#X connect 2 0 16 1;
#X connect 3 0 2 2;
#X connect 4 0 2 3;
#X connect 5 0 2 4;
#X connect 6 0 2 5;
#X connect 7 0 2 6;
#X connect 8 0 14 0;
#X connect 8 0 13 0;
#X connect 8 0 12 0;
#X connect 8 0 10 0;
#X connect 8 0 11 0;
#X connect 8 0 9 0;
#X connect 9 0 0 0;
#X connect 10 0 4 0;
#X connect 11 0 3 0;
#X connect 12 0 5 0;
#X connect 13 0 6 0;
#X connect 14 0 7 0;
#X connect 15 0 16 0;
#X connect 16 0 17 0;
#X connect 16 0 17 1;
