#N canvas 551 280 462 390 10;
#X declare -lib windowing;
#X obj 190 337 output~;
#X floatatom 124 204 5 0 0 0 - - -;
#X floatatom 189 214 5 0 0 0 - - -;
#X floatatom 257 217 5 0 0 0 - - -;
#X obj 37 21 vsl 15 128 0 1 0 0 empty empty empty 0 -9 0 10 -262144
-1 -1 3700 1;
#X floatatom 47 175 5 0 0 0 - - -;
#X obj 111 29 vsl 15 128 20 20000 1 0 empty empty empty 0 -9 0 10 -262144
-1 -1 9000 1;
#X obj 257 48 vsl 15 128 0 1 0 0 empty empty empty 0 -9 0 10 -262144
-1 -1 12700 1;
#X obj 193 41 vsl 15 128 1 1000 0 0 empty empty empty 0 -9 0 10 -262144
-1 -1 0 1;
#X msg 139 173 100;
#X obj 262 335 mostra;
#X floatatom 303 170 5 0 0 0 - - -;
#X msg 144 95 2000;
#X msg 213 188 200;
#X msg 215 136 20;
#X floatatom 375 220 5 0 0 0 - - -;
#X obj 375 51 vsl 15 128 0 1 0 0 empty empty empty 0 -9 0 10 -262144
-1 -1 0 1;
#X floatatom 421 173 5 0 0 0 - - -;
#X obj 287 294 FMdinamica~;
#X obj 304 21 bng 15 250 50 0 empty empty empty 17 7 0 10 -262144 -1
-1;
#X obj 117 283 FMsimples~;
#X obj 342 255 sig~;
#X obj 48 205 sig~;
#X obj 129 227 sig~;
#X obj 189 234 sig~;
#X obj 257 240 sig~;
#X connect 1 0 23 0;
#X connect 2 0 24 0;
#X connect 3 0 25 0;
#X connect 4 0 5 0;
#X connect 5 0 22 0;
#X connect 6 0 1 0;
#X connect 7 0 3 0;
#X connect 8 0 2 0;
#X connect 9 0 1 0;
#X connect 9 0 2 0;
#X connect 11 0 3 0;
#X connect 12 0 1 0;
#X connect 13 0 2 0;
#X connect 14 0 2 0;
#X connect 15 0 21 0;
#X connect 16 0 15 0;
#X connect 17 0 15 0;
#X connect 19 0 12 0;
#X connect 19 0 14 0;
#X connect 19 0 11 0;
#X connect 19 0 17 0;
#X connect 20 0 0 0;
#X connect 20 0 0 1;
#X connect 20 0 10 0;
#X connect 21 0 18 4;
#X connect 22 0 20 0;
#X connect 22 0 18 0;
#X connect 23 0 20 1;
#X connect 23 0 18 1;
#X connect 24 0 20 2;
#X connect 24 0 18 2;
#X connect 25 0 20 3;
#X connect 25 0 18 3;
