#N canvas 170 134 664 684 10;
#X declare -lib windowing;
#X obj 117 283 FMsimples~;
#X obj 96 423 output~;
#X floatatom 134 217 5 0 0 0 - - -;
#X floatatom 189 214 5 0 0 0 - - -;
#X floatatom 257 217 5 0 0 0 - - -;
#X obj 37 21 vsl 15 128 0 1 0 0 empty empty empty 0 -9 0 10 -262144
-1 -1 12700 1;
#X floatatom 70 209 5 0 0 0 - - -;
#X obj 111 29 vsl 15 128 20 20000 1 0 empty empty empty 0 -9 0 10 -262144
-1 -1 6800 1;
#X obj 257 48 vsl 15 128 0 1 0 0 empty empty empty 0 -9 0 10 -262144
-1 -1 0 1;
#X obj 193 41 vsl 15 128 1 1000 0 0 empty empty empty 0 -9 0 10 -262144
-1 -1 1200 1;
#X msg 139 173 100;
#X obj 276 350 mostra;
#X floatatom 303 170 5 0 0 0 - - -;
#X msg 144 95 2000;
#X msg 213 188 200;
#X msg 215 136 20;
#X obj 287 294 FMdinamica~;
#X floatatom 375 220 5 0 0 0 - - -;
#X obj 375 51 vsl 15 128 0 1 0 0 empty empty empty 0 -9 0 10 -262144
-1 -1 12700 1;
#X floatatom 421 173 5 0 0 0 - - -;
#X connect 2 0 0 1;
#X connect 2 0 16 1;
#X connect 3 0 0 2;
#X connect 3 0 16 2;
#X connect 4 0 0 3;
#X connect 4 0 16 3;
#X connect 5 0 6 0;
#X connect 6 0 0 0;
#X connect 6 0 16 0;
#X connect 7 0 2 0;
#X connect 8 0 4 0;
#X connect 9 0 3 0;
#X connect 10 0 2 0;
#X connect 10 0 3 0;
#X connect 12 0 4 0;
#X connect 13 0 2 0;
#X connect 14 0 3 0;
#X connect 15 0 3 0;
#X connect 16 0 11 0;
#X connect 16 0 1 0;
#X connect 16 0 1 1;
#X connect 17 0 16 4;
#X connect 18 0 17 0;
#X connect 19 0 17 0;
