#N canvas 736 262 450 300 10;
#X obj 110 101 Rexponencial~;
#X obj 73 53 bng 15 250 50 0 empty empty empty 17 7 0 10 -262144 -1
-1;
#X obj 129 172 mostra_envelope~;
#X floatatom 145 46 5 0 0 0 - - -;
#X obj 115 14 hsl 128 15 0 10000 0 0 empty empty empty -2 -8 0 10 -262144
-1 -1 4900 1;
#X obj 215 51 hsl 128 15 0.0001 5 0 0 empty empty empty -2 -8 0 10
-262144 -1 -1 900 1;
#X floatatom 216 73 5 0 0 0 - - -;
#X obj 37 132 osc~ 440;
#X obj 67 193 *~;
#X obj 59 233 output~;
#X connect 0 0 2 0;
#X connect 0 0 8 1;
#X connect 1 0 0 0;
#X connect 3 0 0 1;
#X connect 4 0 3 0;
#X connect 5 0 6 0;
#X connect 6 0 0 2;
#X connect 7 0 8 0;
#X connect 8 0 9 0;
#X connect 8 0 9 1;
