#N canvas 335 177 834 453 10;
#X obj 81 154 line~;
#X obj 75 213 bng 15 250 50 0 empty empty empty 17 7 0 10 -262144 -1
-1;
#X obj 108 240 ADSRlinear~;
#X obj 139 158 line~;
#X obj 191 156 line~;
#X obj 249 160 line~;
#X obj 299 159 line~;
#X obj 357 163 line~;
#X obj 180 30 bng 15 250 50 0 empty empty empty 17 7 0 10 -262144 -1
-1;
#X msg 100 102 1000;
#X msg 197 107 500;
#X msg 155 97 1;
#X msg 242 109 0.8;
#X msg 280 110 2000;
#X msg 322 108 700;
#X obj 74 292 osc~ 440;
#X obj 134 342 *~;
#X obj 130 379 output~;
#X obj 226 312 mostra_envelope~;
#X floatatom 451 167 5 0 0 0 - - -;
#X obj 438 100 hsl 128 15 0.001 3 0 0 empty empty empty -2 -8 0 10
-262144 -1 -1 0 1;
#X connect 1 0 2 0;
#X connect 2 0 16 1;
#X connect 2 0 18 0;
#X connect 8 0 14 0;
#X connect 8 0 13 0;
#X connect 8 0 12 0;
#X connect 8 0 10 0;
#X connect 8 0 11 0;
#X connect 8 0 9 0;
#X connect 9 0 0 0;
#X connect 9 0 2 1;
#X connect 10 0 4 0;
#X connect 10 0 2 3;
#X connect 11 0 3 0;
#X connect 11 0 2 2;
#X connect 12 0 5 0;
#X connect 12 0 2 4;
#X connect 13 0 6 0;
#X connect 13 0 2 5;
#X connect 14 0 7 0;
#X connect 14 0 2 6;
#X connect 15 0 16 0;
#X connect 16 0 17 0;
#X connect 16 0 17 1;
#X connect 20 0 19 0;
