#N canvas 175 171 516 652 10;
#X declare -lib windowing;
#X obj 339 156 hsl 128 15 0 2 0 0 empty empty empty -2 -8 0 10 -262144
-1 -1 0 1;
#X floatatom 341 183 5 0 0 0 - - -;
#X obj 337 214 sig~;
#X obj 284 44 vsl 15 128 20 20000 1 0 empty empty empty 0 -9 0 10 -262144
-1 -1 4300 1;
#X floatatom 291 188 5 0 0 0 - - -;
#X obj 290 218 sig~;
#X obj 212 391 output~;
#X obj 312 383 mostra;
#X msg 393 188 0.5;
#X obj 107 327 FMorgao~;
#X msg 116 79 1;
#X msg 185 99 3;
#X obj 105 27 bng 15 250 50 0 empty empty empty 17 7 0 10 -262144 -1
-1;
#X obj 34 113 bng 15 250 50 0 empty empty empty 17 7 0 10 -262144 -1
-1;
#X msg 94 108 100;
#X msg 131 104 300;
#X msg 152 80 100;
#X obj 129 -33 hsl 128 15 0 10000 0 0 empty empty empty -2 -8 0 10
-262144 -1 -1 5100 1;
#X floatatom 147 8 5 0 0 0 - - -;
#X text 179 7 Duracao;
#X obj 109 165 ASR~;
#X obj 199 328 FMfagote~;
#X obj 308 332 FMclarinete~;
#X obj 30 230 mostra_envelope~;
#X connect 0 0 1 0;
#X connect 1 0 2 0;
#X connect 2 0 9 2;
#X connect 2 0 21 2;
#X connect 2 0 22 2;
#X connect 3 0 4 0;
#X connect 4 0 5 0;
#X connect 5 0 9 1;
#X connect 5 0 21 1;
#X connect 5 0 22 1;
#X connect 8 0 2 0;
#X connect 9 0 6 0;
#X connect 9 0 6 1;
#X connect 9 0 7 0;
#X connect 10 0 20 2;
#X connect 11 0 20 5;
#X connect 12 0 14 0;
#X connect 12 0 10 0;
#X connect 12 0 15 0;
#X connect 12 0 16 0;
#X connect 12 0 11 0;
#X connect 13 0 20 0;
#X connect 14 0 20 1;
#X connect 15 0 20 3;
#X connect 16 0 20 4;
#X connect 17 0 18 0;
#X connect 18 0 20 3;
#X connect 20 0 23 0;
#X connect 20 0 22 0;
#X connect 21 0 6 0;
#X connect 21 0 6 1;
#X connect 21 0 7 0;
#X connect 22 0 6 0;
#X connect 22 0 6 1;
#X connect 22 0 7 0;
