#N canvas 184 187 450 530 10;
#X declare -lib windowing;
#X obj 130 149 FMmetal~;
#X obj 203 48 hsl 128 15 0 2 0 0 empty empty empty -2 -8 0 10 -262144
-1 -1 0 1;
#X floatatom 205 75 5 0 0 0 - - -;
#X obj 201 106 sig~;
#X obj 148 -57 vsl 15 128 20 20000 1 0 empty empty empty 0 -9 0 10
-262144 -1 -1 4600 1;
#X floatatom 155 80 5 0 0 0 - - -;
#X obj 154 110 sig~;
#X floatatom 75 80 5 0 0 0 - - -;
#X obj 75 103 sig~;
#X obj 79 -64 vsl 15 128 0 1 0 0 empty empty empty 0 -9 0 10 -262144
-1 -1 3900 1;
#X obj 129 207 output~;
#X obj 229 199 mostra;
#X msg 257 80 0.5;
#X connect 0 0 10 0;
#X connect 0 0 10 1;
#X connect 0 0 11 0;
#X connect 1 0 2 0;
#X connect 2 0 3 0;
#X connect 3 0 0 2;
#X connect 4 0 5 0;
#X connect 5 0 6 0;
#X connect 6 0 0 1;
#X connect 7 0 8 0;
#X connect 8 0 0 0;
#X connect 9 0 7 0;
#X connect 12 0 3 0;
