#N canvas 524 132 746 693 10;
#X obj 363 235 sig~;
#X obj 316 239 sig~;
#X obj 270 289 FMorgao~;
#X msg 255 154 1;
#X msg 324 174 3;
#X obj 173 188 bng 15 250 50 0 empty empty empty 17 7 0 10 -262144
-1 -1;
#X msg 233 183 100;
#X msg 291 155 100;
#X floatatom 289 115 5 0 0 0 - - -;
#X text 314 70 Duracao;
#X obj 248 240 ASR~;
#X obj 210 -28 inlet;
#X obj 270 319 outlet~;
#X obj 210 19 unpack f f;
#X obj 204 115 loadbang;
#X obj 287 81 f;
#X obj 179 85 f;
#X obj 287 51 * 1000;
#X obj 209 -6 t b l;
#X obj 186 61 / 3;
#X obj 362 181 loadbang;
#X msg 364 212 0;
#X obj 136 33 t b b b;
#X obj 376 121 print setou_duracao;
#X obj 61 144 print setou_freq;
#X connect 0 0 2 2;
#X connect 1 0 2 1;
#X connect 2 0 12 0;
#X connect 3 0 10 2;
#X connect 4 0 10 5;
#X connect 5 0 10 0;
#X connect 6 0 10 1;
#X connect 7 0 10 4;
#X connect 8 0 10 3;
#X connect 10 0 2 0;
#X connect 11 0 18 0;
#X connect 13 0 19 0;
#X connect 13 1 17 0;
#X connect 14 0 6 0;
#X connect 14 0 3 0;
#X connect 14 0 7 0;
#X connect 14 0 4 0;
#X connect 15 0 8 0;
#X connect 15 0 23 0;
#X connect 16 0 1 0;
#X connect 16 0 24 0;
#X connect 17 0 15 1;
#X connect 18 0 22 0;
#X connect 18 1 13 0;
#X connect 19 0 16 1;
#X connect 20 0 21 0;
#X connect 21 0 0 0;
#X connect 22 0 5 0;
#X connect 22 1 16 0;
#X connect 22 2 15 0;
