#N canvas 0 49 958 1029 10;
#X obj 47 122 osc~;
#X obj 48 184 *~;
#X obj 47 65 r freq\$1;
#X obj 127 30 r fase\$1;
#X obj 63 164 r amp\$1;
#X obj 47 240 throw~ soma;
#X obj 127 57 t f f;
#X obj 127 84 sel 0;
#X text 170 55 so´ propaga mudancas de fase inicial (nao repete valores
identicos);
#X connect 0 0 1 0;
#X connect 1 0 5 0;
#X connect 2 0 0 0;
#X connect 3 0 6 0;
#X connect 4 0 1 1;
#X connect 6 0 7 1;
#X connect 6 1 7 0;
#X connect 7 1 0 1;
