#N canvas 353 116 889 668 10;
#X obj 26 22 inlet~;
#X obj 52 495 outlet;
#X obj 216 504 outlet;
#X obj 363 501 outlet;
#X obj 263 26 loadbang;
#X obj 263 51 f \$1;
#X obj 263 73 max 64;
#X obj 26 46 fft~;
#X obj 27 74 cartopol~;
#N canvas 0 0 450 300 (subpatch) 0;
#X array \$0-magnitude 64 float 2;
#X coords 0 1000 64 0 400 280 1 0 0;
#X restore 454 28 graph;
#X obj 26 102 tabsend~ \$0-magnitude;
#N canvas 176 207 496 433 realoca_vetores 0;
#X obj 100 114 f \$0;
#X obj 98 76 t b f;
#X msg 121 256 \; \$1 resize \$2;
#X obj 107 180 pack s f;
#X obj 173 179 pack s f;
#X msg 123 214 s \$1 \$2;
#X msg 200 216 s \$1 \$2;
#X obj 98 49 inlet;
#X text 29 18 Inlet 1: Tamanho novo dos vetores;
#X text 273 141 As mensagens são do tipo: s <nome_do_vetor> <novo_tamanho>
;
#X obj 273 263 print Realocou_vetor;
#X msg 107 149 \$1-magnitude;
#X msg 187 146 \$1-fase;
#X connect 0 0 11 0;
#X connect 0 0 12 0;
#X connect 1 0 0 0;
#X connect 1 1 3 1;
#X connect 1 1 4 1;
#X connect 3 0 5 0;
#X connect 4 0 6 0;
#X connect 5 0 2 0;
#X connect 5 0 10 0;
#X connect 6 0 2 0;
#X connect 6 0 10 0;
#X connect 7 0 1 0;
#X connect 11 0 3 0;
#X connect 12 0 4 0;
#X restore 303 122 pd realoca_vetores;
#N canvas 0 0 450 300 (subpatch) 0;
#X array \$0-fase 64 float 2;
#X coords 0 3.15 64 -3.15 400 280 1 0 0;
#X restore 453 341 graph;
#X obj 192 26 block~ \$1;
#X obj 78 126 tabsend~ \$0-fase;
#N canvas 589 253 704 629 descobre_k 0;
#X msg 115 125 set \$1;
#X obj 115 78 f \$0;
#X obj 115 41 loadbang;
#X text 52 13 Inicializa nomes dos vetores;
#X msg 116 101 s \$1-magnitude;
#X obj 94 155 tabminmax;
#X obj 145 184 unpack;
#X obj 178 208 outlet;
#X obj 65 121 inlet;
#X connect 0 0 5 0;
#X connect 1 0 4 0;
#X connect 2 0 1 0;
#X connect 4 0 0 0;
#X connect 5 1 6 0;
#X connect 6 1 7 0;
#X connect 8 0 5 0;
#X restore 176 309 pd descobre_k;
#X msg 264 142 float 44100;
#X obj 268 167 /;
#N canvas 711 518 450 300 pico 0;
#X obj 99 24 inlet;
#X obj 174 30 inlet;
#X obj 126 90 *;
#X obj 123 158 outlet;
#X connect 0 0 2 0;
#X connect 1 0 2 1;
#X connect 2 0 3 0;
#X restore 55 453 pd pico;
#X obj 268 193 s freq_analise;
#X obj 111 429 r freq_analise;
#X obj 264 96 t b f f;
#X obj 176 287 bang~;
#X connect 0 0 7 0;
#X connect 4 0 5 0;
#X connect 5 0 6 0;
#X connect 6 0 21 0;
#X connect 7 0 8 0;
#X connect 7 1 8 1;
#X connect 8 0 10 0;
#X connect 8 1 14 0;
#X connect 15 0 18 0;
#X connect 16 0 17 0;
#X connect 17 0 19 0;
#X connect 18 0 1 0;
#X connect 20 0 18 1;
#X connect 21 0 16 0;
#X connect 21 1 17 1;
#X connect 21 2 11 0;
#X connect 22 0 15 0;
