#N canvas 538 232 889 661 10;
#X obj 26 22 inlet~;
#X obj 52 495 outlet;
#X obj 216 504 outlet;
#X obj 363 501 outlet;
#X obj 263 26 loadbang;
#X obj 263 51 f \$1;
#X obj 263 73 max 64;
#X obj 26 46 fft~;
#X obj 27 74 cartopol~;
#N canvas 0 0 450 300 (subpatch) 0;
#X array \$0-magnitude 1024 float 2;
#X coords 0 1000 1024 0 400 280 1 0 0;
#X restore 454 28 graph;
#X obj 26 102 tabsend~ \$0-magnitude;
#N canvas 176 207 496 433 realoca_vetores 0;
#X obj 100 114 f \$0;
#X obj 98 76 t b f;
#X msg 121 256 \; \$1 resize \$2;
#X obj 107 180 pack s f;
#X obj 173 179 pack s f;
#X msg 123 214 s \$1 \$2;
#X msg 200 216 s \$1 \$2;
#X obj 98 49 inlet;
#X text 29 18 Inlet 1: Tamanho novo dos vetores;
#X text 273 141 As mensagens são do tipo: s <nome_do_vetor> <novo_tamanho>
;
#X obj 273 263 print Realocou_vetor;
#X msg 107 149 \$1-magnitude;
#X msg 187 146 \$1-fase;
#X connect 0 0 11 0;
#X connect 0 0 12 0;
#X connect 1 0 0 0;
#X connect 1 1 3 1;
#X connect 1 1 4 1;
#X connect 3 0 5 0;
#X connect 4 0 6 0;
#X connect 5 0 2 0;
#X connect 5 0 10 0;
#X connect 6 0 2 0;
#X connect 6 0 10 0;
#X connect 7 0 1 0;
#X connect 11 0 3 0;
#X connect 12 0 4 0;
#X restore 303 122 pd realoca_vetores;
#N canvas 0 0 450 300 (subpatch) 0;
#X array \$0-fase 1024 float 2;
#X coords 0 3.15 1024 -3.15 400 280 1 0 0;
#X restore 453 341 graph;
#X obj 192 26 block~ \$1;
#X obj 78 126 tabsend~ \$0-fase;
#N canvas 690 155 704 629 descobre_k 1;
#X msg 401 129 set \$1;
#X obj 401 82 f \$0;
#X obj 401 45 loadbang;
#X text 338 17 Inicializa nomes dos vetores;
#X msg 402 105 s \$1-magnitude;
#X obj 188 46 inlet;
#X obj 201 573 outlet;
#X obj 525 49 inlet;
#X obj 401 161 s seta_nome;
#X obj 527 140 s seta_contador;
#X obj 526 87 / 2;
#X obj 525 115 + 1;
#X obj 530 195 print contando_ate;
#X obj 180 181 uzi;
#X obj 208 160 r seta_contador;
#X obj 196 236 tabread;
#X obj 224 206 r seta_nome;
#X obj 196 283 max;
#X obj 196 308 t f f;
#X obj 169 340 float;
#X text 207 340 maximo;
#X obj 242 236 r zera_maximo;
#X msg 242 259 0;
#X obj 209 142 s zera_maximo;
#X obj 196 205 - 1;
#X obj 144 215 t b b;
#X obj 121 398 sel;
#X obj 42 274 uzi;
#X obj 70 253 r seta_contador;
#X obj 43 371 tabread;
#X obj 71 341 r seta_nome;
#X obj 55 300 - 1;
#X obj 61 476 float;
#X text 98 477 Indice atual;
#X obj 185 535 spigot;
#X obj 188 69 t b b b;
#X obj 242 97 s abre_spigot;
#X obj 270 459 r abre_spigot;
#X msg 230 505 1;
#X obj 67 503 t b f;
#X msg 184 506 0;
#X obj 53 321 t f f;
#X connect 0 0 8 0;
#X connect 1 0 4 0;
#X connect 2 0 1 0;
#X connect 4 0 0 0;
#X connect 5 0 35 0;
#X connect 7 0 10 0;
#X connect 10 0 11 0;
#X connect 11 0 9 0;
#X connect 11 0 12 0;
#X connect 13 1 25 0;
#X connect 13 2 24 0;
#X connect 14 0 13 1;
#X connect 15 0 17 0;
#X connect 16 0 15 0;
#X connect 17 0 18 0;
#X connect 18 0 19 1;
#X connect 18 1 17 1;
#X connect 19 0 26 1;
#X connect 21 0 22 0;
#X connect 22 0 17 1;
#X connect 24 0 15 0;
#X connect 25 0 27 0;
#X connect 25 1 19 0;
#X connect 26 0 32 0;
#X connect 27 2 31 0;
#X connect 28 0 27 1;
#X connect 29 0 26 0;
#X connect 30 0 29 0;
#X connect 31 0 41 0;
#X connect 32 0 39 0;
#X connect 34 0 6 0;
#X connect 35 0 13 0;
#X connect 35 1 23 0;
#X connect 35 2 36 0;
#X connect 37 0 38 0;
#X connect 38 0 34 1;
#X connect 39 0 40 0;
#X connect 39 1 34 0;
#X connect 40 0 34 1;
#X connect 41 0 29 0;
#X connect 41 1 32 1;
#X restore 176 309 pd descobre_k;
#X msg 264 142 float 44100;
#X obj 268 167 /;
#N canvas 705 528 450 300 pico 0;
#X obj 99 24 inlet;
#X obj 174 30 inlet;
#X obj 126 90 *;
#X obj 123 158 outlet;
#X connect 0 0 2 0;
#X connect 1 0 2 1;
#X connect 2 0 3 0;
#X restore 55 453 pd pico;
#X obj 268 193 s freq_analise;
#X obj 111 429 r freq_analise;
#X obj 176 287 bang~;
#N canvas 435 87 769 818 quad 0;
#X obj 74 17 inlet;
#X obj 379 115 t f f f;
#X obj 418 139 + 1;
#X obj 418 166 mod;
#X obj 379 166 mod;
#X obj 379 137 - 1;
#X obj 385 240 float;
#X obj 441 241 float;
#X obj 331 241 float;
#X obj 331 264 tabread \$0-magnitude;
#X obj 106 155 s seta_variaveis;
#X obj 262 164 r seta_variaveis;
#X obj 386 286 tabread \$0-magnitude;
#X obj 441 309 tabread \$0-magnitude;
#X obj 89 178 s seta_a_e_b;
#X obj 263 189 t b b b b;
#X obj 232 280 r seta_a_e_b;
#X obj 232 307 t b b;
#X obj 277 410 float;
#X obj 351 409 float;
#X obj 332 379 expr ($f3 - $f1)/2;
#X text 331 408 B:;
#X text 253 409 2A:;
#X obj 304 340 expr ($f1 - (2*($f2)) + $f3);
#X obj 185 346 r calcula_x_barra;
#X obj 75 212 s calcula_x_barra;
#X obj 179 17 inlet;
#X obj 280 529 *;
#X obj 280 556 outlet;
#X obj 280 505 +;
#X obj 280 455 expr -($f2/$f1);
#X obj 138 93 s seta_k;
#X obj 74 43 t b b b f f;
#X obj 295 483 r seta_k;
#X obj 123 125 s seta_indices;
#X obj 379 89 r seta_indices;
#X obj 179 43 s seta_freq_de_analise;
#X obj 315 506 r seta_freq_de_analise;
#X obj 454 138 r seta_modulo;
#X obj 328 16 inlet;
#X obj 328 42 s seta_modulo;
#X obj 185 369 t b b;
#X connect 0 0 32 0;
#X connect 1 0 5 0;
#X connect 1 1 6 1;
#X connect 1 2 2 0;
#X connect 2 0 3 0;
#X connect 3 0 7 1;
#X connect 4 0 8 1;
#X connect 5 0 4 0;
#X connect 6 0 12 0;
#X connect 7 0 13 0;
#X connect 8 0 9 0;
#X connect 9 0 20 0;
#X connect 9 0 23 0;
#X connect 11 0 15 0;
#X connect 12 0 23 1;
#X connect 13 0 20 2;
#X connect 13 0 23 2;
#X connect 15 1 8 0;
#X connect 15 2 6 0;
#X connect 15 3 7 0;
#X connect 16 0 17 0;
#X connect 17 0 20 0;
#X connect 17 1 23 0;
#X connect 18 0 30 0;
#X connect 19 0 30 1;
#X connect 20 0 19 1;
#X connect 23 0 18 1;
#X connect 24 0 41 0;
#X connect 26 0 36 0;
#X connect 27 0 28 0;
#X connect 29 0 27 0;
#X connect 30 0 29 0;
#X connect 32 0 25 0;
#X connect 32 1 14 0;
#X connect 32 2 10 0;
#X connect 32 3 34 0;
#X connect 32 4 31 0;
#X connect 33 0 29 1;
#X connect 35 0 1 0;
#X connect 37 0 27 1;
#X connect 38 0 3 1;
#X connect 38 0 4 1;
#X connect 39 0 40 0;
#X connect 41 0 18 0;
#X connect 41 1 19 0;
#X restore 219 423 pd quad;
#X obj 264 96 t b f f f;
#X obj 238 386 r freq_analise;
#X obj 347 153 s seta_bloco;
#X obj 255 275 r seta_bloco;
#X obj 258 400 r seta_bloco;
#X obj 87 355 print k;
#X connect 0 0 7 0;
#X connect 4 0 5 0;
#X connect 5 0 6 0;
#X connect 6 0 23 0;
#X connect 7 0 8 0;
#X connect 7 1 8 1;
#X connect 8 0 10 0;
#X connect 8 1 14 0;
#X connect 15 0 18 0;
#X connect 15 0 22 0;
#X connect 15 0 28 0;
#X connect 16 0 17 0;
#X connect 17 0 19 0;
#X connect 18 0 1 0;
#X connect 20 0 18 1;
#X connect 21 0 15 0;
#X connect 22 0 2 0;
#X connect 23 0 16 0;
#X connect 23 1 17 1;
#X connect 23 2 11 0;
#X connect 23 3 25 0;
#X connect 24 0 22 1;
#X connect 26 0 15 1;
#X connect 27 0 22 2;
