#N canvas 447 149 889 668 10;
#X obj 26 22 inlet~;
#X obj 103 296 outlet;
#X obj 308 293 outlet;
#X obj 365 290 outlet;
#X obj 321 15 loadbang;
#X obj 320 66 f \$1;
#X obj 320 88 max 64;
#X obj 19 79 fft~;
#X obj 19 118 cartopol~;
#N canvas 0 0 450 300 (subpatch) 0;
#X array \$0-magnitude 64 float 2;
#X coords 0 1000 64 0 400 280 1 0 0;
#X restore -17 331 graph;
#X obj 21 161 tabsend~ \$0-magnitude;
#N canvas 176 207 496 433 realoca_vetores 0;
#X obj 100 114 f \$0;
#X obj 98 76 t b f;
#X msg 121 256 \; \$1 resize \$2;
#X obj 107 180 pack s f;
#X obj 173 179 pack s f;
#X msg 123 214 s \$1 \$2;
#X msg 200 216 s \$1 \$2;
#X obj 98 49 inlet;
#X text 29 18 Inlet 1: Tamanho novo dos vetores;
#X text 273 141 As mensagens são do tipo: s <nome_do_vetor> <novo_tamanho>
;
#X obj 273 263 print Realocou_vetor;
#X msg 107 149 \$1-magnitude;
#X msg 187 146 \$1-fase;
#X connect 0 0 11 0;
#X connect 0 0 12 0;
#X connect 1 0 0 0;
#X connect 1 1 3 1;
#X connect 1 1 4 1;
#X connect 3 0 5 0;
#X connect 4 0 6 0;
#X connect 5 0 2 0;
#X connect 5 0 10 0;
#X connect 6 0 2 0;
#X connect 6 0 10 0;
#X connect 7 0 1 0;
#X connect 11 0 3 0;
#X connect 12 0 4 0;
#X restore 320 115 pd realoca_vetores;
#N canvas 0 0 450 300 (subpatch) 0;
#X array \$0-fase 64 float 2;
#X coords 0 3.15 64 -3.15 400 280 1 0 0;
#X restore 396 329 graph;
#X obj 222 132 print Tamanho;
#X obj 321 147 block~ \$1;
#X obj 73 185 tabsend~ \$0-fase;
#N canvas 595 271 704 629 descobre_k 0;
#X obj 77 28 bang~;
#X msg 351 143 set \$1;
#X obj 351 96 f \$0;
#X obj 351 59 loadbang;
#X text 288 31 Inicializa nomes dos vetores;
#X obj 350 172 send seta_vetor;
#X msg 352 119 s \$1-magnitude;
#X obj 91 157 tabminmax;
#X obj 98 126 r seta_vetor;
#X obj 73 202 unpack;
#X floatatom 73 227 0 0 0 0 minimum - -;
#X floatatom 110 228 2 0 0 3 idx - -;
#X obj 203 202 unpack;
#X floatatom 174 275 0 0 0 0 maximum - -;
#X floatatom 236 241 2 0 0 3 idx - -;
#X obj 235 339 outlet;
#X connect 0 0 7 0;
#X connect 1 0 5 0;
#X connect 2 0 6 0;
#X connect 3 0 2 0;
#X connect 6 0 1 0;
#X connect 7 0 9 0;
#X connect 7 1 12 0;
#X connect 8 0 7 0;
#X connect 9 0 10 0;
#X connect 9 1 11 0;
#X connect 12 0 13 0;
#X connect 12 1 14 0;
#X connect 14 0 15 0;
#X restore 204 205 pd descobre_k;
#X obj 484 190 print freq_analise;
#X msg 469 115 float 44100;
#X obj 477 149 /;
#X obj 493 80 t b f;
#X obj 293 176 s seta_freq_analise;
#X obj 490 36 r seta_freq_analise;
#N canvas 714 513 450 300 pico 1;
#X obj 99 24 inlet;
#X obj 174 30 inlet;
#X obj 126 90 *;
#X obj 123 158 outlet;
#X connect 0 0 2 0;
#X connect 1 0 2 1;
#X connect 2 0 3 0;
#X restore 106 254 pd pico;
#X obj 477 221 s freq_analise;
#X obj 162 230 r freq_analise;
#X connect 0 0 7 0;
#X connect 4 0 5 0;
#X connect 5 0 6 0;
#X connect 6 0 11 0;
#X connect 6 0 13 0;
#X connect 6 0 21 0;
#X connect 7 0 8 0;
#X connect 7 1 8 1;
#X connect 8 0 10 0;
#X connect 8 1 15 0;
#X connect 16 0 23 0;
#X connect 18 0 19 0;
#X connect 19 0 17 0;
#X connect 19 0 24 0;
#X connect 20 0 18 0;
#X connect 20 1 19 1;
#X connect 22 0 20 0;
#X connect 23 0 1 0;
#X connect 25 0 23 1;
