#N canvas 621 161 782 696 10;
#X obj 158 59 osc~ 440;
#X obj 225 27 noise~;
#X obj 148 155 print pico;
#X floatatom 145 26 5 0 0 0 - - -;
#X obj 192 96 rastreiaF0~ 1024;
#X connect 0 0 4 0;
#X connect 3 0 0 0;
#X connect 4 0 2 0;
