#N canvas 233 159 401 229 10;
#X obj 192 66 osc~ 440;
#X obj 192 122 print pico;
#X floatatom 192 45 5 0 0 0 - - -;
#X obj 238 143 print quadratico;
#X obj 285 123 print dif_fase;
#X obj 192 96 rastreiaF0~ 1024;
#X connect 0 0 5 0;
#X connect 2 0 0 0;
#X connect 5 0 1 0;
#X connect 5 1 3 0;
#X connect 5 2 4 0;
