#N canvas 388 275 919 291 10;
#X obj 26 56 openpanel;
#X obj 352 73 readsf~;
#X obj 425 210 dac~;
#X obj 691 130 *~;
#X obj 25 2 key;
#X obj 122 4 key;
#X obj 122 25 sel 116;
#X obj 194 31 sel 112;
#X obj 195 7 key;
#X obj 26 24 sel 97;
#X text 15 -17 Abre (a);
#X text 113 -17 Toca (t);
#X obj 436 175 multiplex~;
#N canvas 348 335 924 495 escolhe_ruido 0;
#X obj 164 21 inlet;
#X obj 23 131 noise~;
#X obj 23 156 fexpr~ (0.14*$x1-0.99*$y[-2]);
#X text 23 108 Ruído de banda estreita;
#X obj 497 191 noise~;
#X text 464 166 Ruído de banda larga;
#X obj 244 140 random 2;
#X obj 311 291 multiplex~;
#X obj 351 196 print Larga;
#X obj 245 167 sel 0 1;
#X obj 245 194 print Estreita;
#X text 245 97 Escolhe ruido aleatoriamente e imprime na tela.;
#X text 239 13 Entrada: 0 ou 1 para escolher o ruído.;
#X obj 312 349 outlet~;
#X text 313 377 Saida: Ruido escolhido;
#X connect 0 0 6 0;
#X connect 1 0 2 0;
#X connect 2 0 7 0;
#X connect 4 0 7 1;
#X connect 6 0 7 0;
#X connect 6 0 9 0;
#X connect 7 0 13 0;
#X connect 9 0 10 0;
#X connect 9 1 8 0;
#X restore 749 88 pd escolhe_ruido;
#N canvas 835 490 450 300 leitura_db 0;
#X obj 60 58 rmstodb;
#X obj 62 85 float;
#X obj 58 -9 inlet~;
#X obj 58 21 rms~;
#X obj 10 -8 inlet;
#X obj 62 143 print Volume do ruido;
#X msg 62 117 \$1 db;
#X text 6 -34 Entrada 1: Bang para impressao do valor.;
#X text 107 -9 Entrada2: Sinal de ruido.;
#X text 12 188 Saida: Valor atual para visualizaçao;
#X obj 27 165 outlet;
#X connect 0 0 1 1;
#X connect 0 0 10 0;
#X connect 1 0 6 0;
#X connect 2 0 3 0;
#X connect 3 0 0 0;
#X connect 4 0 1 0;
#X connect 6 0 5 0;
#X restore 673 204 pd leitura_db;
#N canvas 842 411 516 417 rampa_amplitude_delay 0;
#X obj 15 -60 line~;
#X obj 14 -33 *~;
#X obj 14 -113 delay;
#X obj 42 -142 random 20000;
#X obj 59 -114 print Delay (ms);
#X text 67 -161 Rand ate 20000ms;
#X obj 6 -202 inlet;
#X obj 14 -7 outlet~;
#X text 22 -20 comment;
#X text 10 15 Sinal com amplitude entre 0 e 1;
#X obj 6 -176 t b b;
#X msg 15 -86 1 20000;
#X msg 99 -84 0;
#X text 124 -86 Zera saída.;
#X text 2 -224 Entrada1: Bang para ativar trigger.;
#X connect 0 0 1 0;
#X connect 0 0 1 1;
#X connect 1 0 7 0;
#X connect 2 0 11 0;
#X connect 3 0 2 1;
#X connect 3 0 4 0;
#X connect 6 0 10 0;
#X connect 10 0 2 0;
#X connect 10 1 3 0;
#X connect 10 1 12 0;
#X connect 11 0 0 0;
#X connect 12 0 0 0;
#X restore 586 88 pd rampa_amplitude_delay;
#X obj 672 179 r para;
#X obj 450 10 r para;
#X obj 398 12 r toca;
#X obj 531 152 +~;
#X msg 400 39 1;
#X msg 450 35 0;
#X obj 122 82 s toca;
#X obj 194 62 s para;
#X obj 691 11 r toca;
#X obj 691 40 t b b;
#X text 362 -12 Comandos:;
#X text 630 -13 Pre-processamento e impressao:;
#X text 489 128 Junta musica e ruido;
#X text 195 -16 Para (p);
#X msg 27 112 open \$1;
#X obj 27 86 symbol;
#X obj 122 47 t b b;
#X obj 27 136 s msg_leitura;
#X obj 303 12 r msg_leitura;
#X connect 0 0 31 1;
#X connect 1 0 19 0;
#X connect 3 0 14 1;
#X connect 3 0 19 1;
#X connect 4 0 9 0;
#X connect 5 0 6 0;
#X connect 6 0 32 0;
#X connect 7 0 23 0;
#X connect 8 0 7 0;
#X connect 9 0 0 0;
#X connect 12 0 2 0;
#X connect 12 0 2 1;
#X connect 13 0 3 1;
#X connect 15 0 3 0;
#X connect 16 0 14 0;
#X connect 17 0 21 0;
#X connect 18 0 20 0;
#X connect 19 0 12 1;
#X connect 20 0 12 0;
#X connect 20 0 1 0;
#X connect 21 0 12 0;
#X connect 24 0 25 0;
#X connect 25 0 15 0;
#X connect 25 1 13 0;
#X connect 30 0 33 0;
#X connect 31 0 30 0;
#X connect 32 0 22 0;
#X connect 32 1 31 0;
#X connect 34 0 1 0;
