#N canvas 1782 287 955 460 10;
#X msg 25 66 open \$1;
#X obj 26 43 openpanel;
#X obj 100 109 readsf~;
#X obj 384 5 noise~;
#X obj 384 30 fexpr~ (0.14*$x1-0.99*$y[-2]);
#X obj 155 372 dac~;
#X obj 267 173 line~;
#X obj 268 204 *~;
#X obj 227 297 +~;
#X obj 307 227 *~;
#X msg 300 136 0 \, 1 20000;
#X obj 25 -11 key;
#X msg 120 56 1;
#X obj 120 7 key;
#X obj 120 32 sel 116;
#X obj 190 30 sel 112;
#X obj 191 6 key;
#X msg 191 54 0;
#X obj 26 11 sel 97;
#X text 384 -18 Ruído de banda estreita;
#X text 15 -30 Abre (a);
#X text 111 -14 Toca (t);
#X text 185 -13 Para (p);
#X obj 252 83 delay;
#X obj 277 44 random 20000;
#X obj 567 10 noise~;
#X text 534 -15 Ruído de banda larga;
#X text 266 116 Rampa de amplitude;
#X obj 673 26 random 2;
#X obj 512 170 multiplex~;
#X text 671 -17 Escolhe ruido aleatoriamente;
#X obj 780 82 print Larga;
#X obj 674 53 sel 0 1;
#X obj 305 90 print Delay (ms);
#X obj 674 80 print Estreita;
#X obj 327 256 rms~;
#X obj 327 287 rmstodb;
#X floatatom 244 260 5 0 0 0 - - -;
#X obj 241 228 rms~;
#X floatatom 328 322 5 0 0 0 - - -;
#X obj 325 357 float;
#X floatatom 327 392 5 0 0 0 - - -;
#X text 268 20 Rand ate 20000ms;
#X obj 166 337 multiplex~;
#X msg 248 138 0;
#X connect 0 0 2 0;
#X connect 1 0 0 0;
#X connect 2 0 8 0;
#X connect 3 0 4 0;
#X connect 4 0 29 0;
#X connect 6 0 7 0;
#X connect 6 0 7 1;
#X connect 7 0 9 0;
#X connect 7 0 38 0;
#X connect 8 0 43 1;
#X connect 9 0 8 1;
#X connect 9 0 35 0;
#X connect 10 0 6 0;
#X connect 11 0 18 0;
#X connect 12 0 2 0;
#X connect 12 0 43 0;
#X connect 13 0 14 0;
#X connect 14 0 12 0;
#X connect 14 0 23 0;
#X connect 15 0 17 0;
#X connect 15 0 40 0;
#X connect 15 0 44 0;
#X connect 16 0 15 0;
#X connect 17 0 2 0;
#X connect 17 0 43 0;
#X connect 18 0 1 0;
#X connect 18 0 24 0;
#X connect 18 0 44 0;
#X connect 18 0 28 0;
#X connect 23 0 10 0;
#X connect 24 0 23 1;
#X connect 24 0 33 0;
#X connect 25 0 29 1;
#X connect 28 0 29 0;
#X connect 28 0 32 0;
#X connect 29 0 9 1;
#X connect 32 0 34 0;
#X connect 32 1 31 0;
#X connect 35 0 36 0;
#X connect 36 0 39 0;
#X connect 36 0 40 1;
#X connect 38 0 37 0;
#X connect 40 0 41 0;
#X connect 43 0 5 0;
#X connect 43 0 5 1;
#X connect 44 0 6 0;
