#N canvas 165 224 414 335 10;
#X obj -52 80 inlet;
#X obj -10 79 inlet;
#X text -52 53 Valor;
#X obj -52 234 expr $f1+$f2;
#X obj -10 185 t f f;
#X obj 63 78 inlet;
#X obj 17 211 tabread;
#X obj -55 259 tabwrite;
#X text -51 11 Funciona como o tabwrite (Inlet valor: quente \, inlet
indice: frio);
#X msg 63 101 set \$1;
#X text -13 52 Indice;
#X text 44 44 Mensagem no formato |symbol nome_do_vetor<;
#X connect 0 0 3 0;
#X connect 1 0 4 0;
#X connect 3 0 7 0;
#X connect 4 0 7 1;
#X connect 4 1 6 0;
#X connect 5 0 9 0;
#X connect 6 0 3 1;
#X connect 9 0 6 0;
#X connect 9 0 7 0;
