#N canvas 91 137 589 300 10;
#X obj 53 63 inlet;
#X obj 113 63 inlet;
#X obj 155 63 inlet;
#X obj 195 63 inlet;
#X obj 283 64 inlet;
#X obj 325 64 inlet;
#X obj 365 64 inlet;
#X obj 110 135 expr sqrt( ($f4-$f1)*($f4-$f1) + ($f5-$f2)*($f5-$f2)
+ ($f6-$f3)*($f6-$f3));
#X obj 111 202 outlet;
#X connect 0 0 7 0;
#X connect 1 0 7 0;
#X connect 2 0 7 1;
#X connect 3 0 7 2;
#X connect 4 0 7 3;
#X connect 5 0 7 4;
#X connect 6 0 7 5;
#X connect 7 0 8 0;
