#N canvas 1 82 450 300 10;
#X obj 91 55 inlet;
#X obj 305 67 inlet;
#X obj 455 62 inlet;
#X text 84 30 i;
#X text 306 43 DX;
#X text 454 38 FX;
#X obj 209 454 outlet;
#X obj 114 177 mod 2;
#X obj 115 202 select 0;
#X text 93 203 par;
#X text 169 203 impar;
#X msg 66 334 0;
#X obj 286 181 *;
#X obj 208 404 +;
#X obj 304 139 t f f;
#X obj 438 165 s fx;
#X obj 471 187 s 2fx;
#X obj 470 165 * -2;
#X obj 170 327 float;
#X text 207 327 diff;
#X obj 200 301 +;
#X obj 220 231 r 2fx;
#X obj 216 263 t b f;
#X obj 179 265 r dx;
#X obj 335 174 s dx;
#X obj 286 237 +;
#X obj 308 207 r fx;
#X obj 147 227 t b;
#X obj 457 98 t f f;
#X obj 141 113 t f f;
#X connect 0 0 29 0;
#X connect 1 0 14 0;
#X connect 2 0 28 0;
#X connect 7 0 8 0;
#X connect 8 0 11 0;
#X connect 8 1 27 0;
#X connect 11 0 13 0;
#X connect 12 0 25 0;
#X connect 13 0 6 0;
#X connect 14 0 12 1;
#X connect 14 1 24 0;
#X connect 17 0 16 0;
#X connect 18 0 13 0;
#X connect 20 0 18 1;
#X connect 21 0 22 0;
#X connect 22 0 20 0;
#X connect 22 1 20 1;
#X connect 23 0 20 0;
#X connect 25 0 13 1;
#X connect 26 0 25 1;
#X connect 27 0 18 0;
#X connect 28 0 15 0;
#X connect 28 1 17 0;
#X connect 29 0 7 0;
#X connect 29 1 12 0;
