#N canvas 1 87 450 300 10;
#X obj 95 32 inlet;
#X obj 157 32 inlet;
#X text 98 7 T;
#X text 160 9 I;
#X obj 130 77 *;
#X obj 131 138 outlet;
#X obj 130 108 * 3.4;
#X connect 0 0 4 0;
#X connect 1 0 4 1;
#X connect 4 0 6 0;
#X connect 6 0 5 0;
