#N canvas 1 102 450 459 10;
#X obj 60 33 inlet;
#X obj 132 34 inlet;
#X obj 302 212 min;
#X obj 221 181 float;
#X obj 271 183 float;
#X obj 337 184 float;
#X obj 251 241 min;
#X obj 175 102 t b b b;
#X text 128 9 Raio;
#X text 66 9 Bang;
#X obj 69 351 outlet;
#X obj 66 131 float;
#X obj 65 59 t b b;
#X obj 70 310 int;
#X obj 68 273 expr 1 + ($f1/( sqrt(3) * $f2));
#X obj 250 31 inlet;
#X text 247 8 D;
#X obj 253 63 unpack f f f;
#X connect 0 0 12 0;
#X connect 1 0 11 1;
#X connect 2 0 6 1;
#X connect 3 0 6 0;
#X connect 4 0 2 0;
#X connect 5 0 2 1;
#X connect 6 0 14 1;
#X connect 7 0 3 0;
#X connect 7 1 4 0;
#X connect 7 2 5 0;
#X connect 11 0 14 0;
#X connect 12 0 11 0;
#X connect 12 1 7 0;
#X connect 13 0 10 0;
#X connect 14 0 13 0;
#X connect 15 0 17 0;
#X connect 17 0 3 1;
#X connect 17 1 4 1;
#X connect 17 2 5 1;
