#N canvas 89 142 589 300 10;
#X obj 53 63 inlet;
#X obj 110 135 expr sqrt( ($f4-$f1)*($f4-$f1) + ($f5-$f2)*($f5-$f2)
+ ($f6-$f3)*($f6-$f3));
#X obj 111 202 outlet;
#X obj 142 45 inlet;
#X obj 141 69 unpack f f f;
#X obj 323 48 inlet;
#X obj 322 72 unpack f f f;
#X connect 0 0 1 0;
#X connect 1 0 2 0;
#X connect 3 0 4 0;
#X connect 4 0 1 0;
#X connect 4 1 1 1;
#X connect 4 2 1 2;
#X connect 5 0 6 0;
#X connect 6 0 1 3;
#X connect 6 1 1 4;
#X connect 6 2 1 5;
