#N canvas 249 82 516 493 10;
#X obj 96 87 inlet;
#X obj 145 87 inlet;
#X obj 191 87 inlet;
#X obj 27 88 inlet;
#X text 27 59 bang;
#X text 92 64 inicial;
#X text 146 64 final;
#X text 187 63 incremento;
#X text 17 8 faz um loop do tipo for(i=inicial \; i<=final \; i+=incremento)
;
#X obj 81 167 int;
#X obj 96 284 expr if ($f1 <= $f2 \, 1 \, 0) \;;
#X obj 81 214 uzi;
#X obj 81 190 t b f;
#X obj 145 109 t f f;
#X obj 96 330 float;
#X obj 96 262 t f f;
#X obj 96 307 select 1;
#X obj 191 109 t f f;
#X obj 96 109 t f f;
#X obj 96 238 expr ($f1-1)*$f3 + $f2;
#X obj 96 138 expr ($f2-$f1)/$f3 + 100;
#X obj 141 330 t b;
#X obj 141 354 s PARA_UZI;
#X obj 13 167 r PARA_UZI;
#X msg 13 187 break;
#X obj 96 354 outlet;
#X obj 27 110 t b b;
#X connect 0 0 18 0;
#X connect 1 0 13 0;
#X connect 2 0 17 0;
#X connect 3 0 26 0;
#X connect 9 0 12 0;
#X connect 10 0 16 0;
#X connect 11 2 19 0;
#X connect 12 0 11 0;
#X connect 12 1 11 1;
#X connect 13 0 20 1;
#X connect 13 1 10 1;
#X connect 14 0 25 0;
#X connect 15 0 10 0;
#X connect 15 1 14 1;
#X connect 16 0 14 0;
#X connect 16 1 21 0;
#X connect 17 0 20 2;
#X connect 17 1 19 2;
#X connect 18 0 20 0;
#X connect 18 1 19 1;
#X connect 19 0 15 0;
#X connect 20 0 9 1;
#X connect 21 0 22 0;
#X connect 23 0 24 0;
#X connect 24 0 11 0;
#X connect 26 0 9 0;
#X connect 26 1 20 0;
