#N canvas 137 130 463 436 10;
#X obj 135 95 inlet;
#X obj 197 96 inlet;
#X obj 253 96 inlet;
#X obj 24 94 inlet;
#X text 24 65 bang;
#X text 131 66 inicial;
#X text 199 65 final;
#X text 255 67 incremento;
#X text 52 18 faz um loop do tipo for(i=inicial \; i<=final \; i+=incremento)
;
#X obj 84 189 float;
#X obj 133 192 +;
#X obj 70 289 float;
#X obj 133 309 select 1;
#X obj 132 275 expr if ($f1 <= $f2 \, 1 \, 0) \;;
#X obj 107 154 float;
#X obj 27 121 t b b;
#X obj 70 310 t f f;
#X obj 97 340 outlet;
#X obj 84 229 t f f;
#X connect 0 0 14 1;
#X connect 1 0 13 1;
#X connect 2 0 10 1;
#X connect 3 0 15 0;
#X connect 9 0 18 0;
#X connect 10 0 9 0;
#X connect 11 0 16 0;
#X connect 12 0 11 0;
#X connect 13 0 12 0;
#X connect 14 0 9 1;
#X connect 15 0 9 0;
#X connect 15 1 14 0;
#X connect 16 0 10 0;
#X connect 16 1 17 0;
#X connect 18 0 13 0;
#X connect 18 1 11 1;
