#N canvas 564 92 643 818 10;
#X obj 142 175 textfile;
#X msg 146 117 rewind;
#X msg 126 142 bang;
#X obj 126 19 loadbang;
#X obj 165 72 symbol \$1;
#X msg 165 96 read \$1;
#X obj 35 277 print Dimensões da sala;
#X obj 27 253 pack f f f;
#X obj 143 203 unpack f f f f f f f f f f f f f f f s;
#X obj 126 45 t b b b;
#X obj 26 296 outlet;
#X obj 87 317 pack f f f;
#X obj 86 360 outlet;
#X obj 95 341 print Posiçao da fonte;
#X obj 133 386 pack f f f;
#X obj 132 429 outlet;
#X obj 141 410 print Posiçao do ouvido esquerdo;
#X obj 187 450 pack f f f;
#X obj 186 493 outlet;
#X obj 195 474 print Posiçao do ouvido direito;
#X obj 237 537 outlet;
#X obj 246 518 print Coeficiente médio de absorção;
#X obj 274 581 outlet;
#X obj 283 562 print Tempo total da resposta impulsiva;
#X obj 312 618 outlet;
#X obj 321 599 print Fração do tempo correspondente à porção inicial
;
#X obj 365 418 outlet;
#X obj 374 399 print Arquivo de saída;
#X connect 0 0 8 0;
#X connect 1 0 0 0;
#X connect 2 0 0 0;
#X connect 3 0 9 0;
#X connect 4 0 5 0;
#X connect 5 0 0 0;
#X connect 7 0 6 0;
#X connect 7 0 10 0;
#X connect 8 0 7 0;
#X connect 8 1 7 1;
#X connect 8 2 7 2;
#X connect 8 3 11 0;
#X connect 8 4 11 1;
#X connect 8 5 11 2;
#X connect 8 6 14 0;
#X connect 8 7 14 1;
#X connect 8 8 14 2;
#X connect 8 9 17 0;
#X connect 8 10 17 1;
#X connect 8 11 17 2;
#X connect 8 12 21 0;
#X connect 8 12 20 0;
#X connect 8 13 23 0;
#X connect 8 13 22 0;
#X connect 8 14 24 0;
#X connect 8 14 25 0;
#X connect 8 15 27 0;
#X connect 8 15 26 0;
#X connect 9 0 2 0;
#X connect 9 1 1 0;
#X connect 9 2 4 0;
#X connect 11 0 12 0;
#X connect 11 0 13 0;
#X connect 14 0 15 0;
#X connect 14 0 16 0;
#X connect 17 0 18 0;
#X connect 17 0 19 0;
