#N canvas 288 85 735 465 10;
#X obj 61 58 inlet;
#X obj 152 63 inlet;
#X obj 133 216 float;
#X obj 281 215 float;
#X obj 451 215 float;
#X obj 59 95 t b b b;
#X obj 134 172 calcula_coordenada;
#X obj 280 171 calcula_coordenada;
#X obj 452 175 calcula_coordenada;
#X obj 154 96 unpack f f f;
#X text 147 34 indices;
#X obj 307 68 inlet;
#X obj 309 101 unpack f f f;
#X text 307 42 sala;
#X obj 462 68 inlet;
#X obj 464 101 unpack f f f;
#X text 462 42 fonte;
#X obj 211 299 pack f f f;
#X obj 209 339 outlet;
#X connect 0 0 5 0;
#X connect 1 0 9 0;
#X connect 2 0 17 0;
#X connect 3 0 17 1;
#X connect 4 0 17 2;
#X connect 5 0 2 0;
#X connect 5 1 3 0;
#X connect 5 2 4 0;
#X connect 6 0 2 1;
#X connect 7 0 3 1;
#X connect 8 0 4 1;
#X connect 9 0 6 0;
#X connect 9 1 7 0;
#X connect 9 2 8 0;
#X connect 11 0 12 0;
#X connect 12 0 6 1;
#X connect 12 1 7 1;
#X connect 12 2 8 1;
#X connect 14 0 15 0;
#X connect 15 0 6 2;
#X connect 15 1 7 2;
#X connect 15 2 8 2;
#X connect 17 0 18 0;
