#N canvas 56 104 735 465 10;
#X obj 61 58 inlet;
#X obj 121 58 inlet;
#X obj 163 58 inlet;
#X obj 203 58 inlet;
#X obj 291 59 inlet;
#X obj 333 59 inlet;
#X obj 373 59 inlet;
#X text 123 27 i;
#X text 166 27 j;
#X text 204 27 k;
#X text 303 28 DX;
#X text 345 27 DY;
#X text 384 28 DZ;
#X obj 462 59 inlet;
#X obj 504 59 inlet;
#X obj 544 59 inlet;
#X text 475 28 FX;
#X text 515 27 FY;
#X text 556 28 FZ;
#X obj 132 245 outlet;
#X obj 133 216 float;
#X obj 280 244 outlet;
#X obj 281 215 float;
#X obj 450 244 outlet;
#X obj 451 215 float;
#X obj 59 95 t b b b;
#X obj 134 172 calcula_coordenada;
#X obj 280 171 calcula_coordenada;
#X obj 452 175 calcula_coordenada;
#X connect 0 0 25 0;
#X connect 1 0 26 0;
#X connect 2 0 27 0;
#X connect 3 0 28 0;
#X connect 4 0 26 1;
#X connect 5 0 27 1;
#X connect 6 0 28 1;
#X connect 13 0 26 2;
#X connect 14 0 27 2;
#X connect 15 0 28 2;
#X connect 20 0 19 0;
#X connect 22 0 21 0;
#X connect 24 0 23 0;
#X connect 25 0 20 0;
#X connect 25 1 22 0;
#X connect 25 2 24 0;
#X connect 26 0 20 1;
#X connect 27 0 22 1;
#X connect 28 0 24 1;
