#N canvas 512 178 450 300 10;
#X obj 58 42 inlet;
#X text 34 15 Inlet quente: delta;
#X obj 250 41 inlet;
#X text 215 17 Inlet frio: dimensoes da sala;
#X obj 58 92 expr acos(-1)*4/3*340*340*340 * ( 3*$f1*$f1/10 + 3*$f1/100
+ 1/1000 ) / ($f2*$f3*$f4);
#X obj 250 64 unpack f f f;
#X obj 57 128 int;
#X text 85 127 Numero de raios na parte tardia;
#X obj 57 157 outlet;
#X connect 0 0 4 0;
#X connect 2 0 5 0;
#X connect 4 0 6 0;
#X connect 5 0 4 1;
#X connect 5 1 4 2;
#X connect 5 2 4 3;
#X connect 6 0 8 0;
