#N canvas 121 96 785 467 10;
#X obj 115 41 inlet;
#X obj 272 50 inlet;
#X text 258 12 Nome do vetor (|symbol nome<);
#X obj 154 91 symbol;
#X text 47 11 Inlet 1: Tamanho novo do vetor;
#X obj 134 117 pack f s;
#X obj 115 68 t b f b;
#X msg 134 139 s \$2 \$1;
#X msg 134 161 \; \$1 resize \$2;
#X obj 115 204 symbol;
#X msg 115 227 \; \$1 const 0;
#X text 227 166 Realoca;
#X text 193 230 Zera;
#X connect 0 0 6 0;
#X connect 1 0 3 1;
#X connect 1 0 9 1;
#X connect 3 0 5 1;
#X connect 5 0 7 0;
#X connect 6 0 9 0;
#X connect 6 1 5 0;
#X connect 6 2 3 0;
#X connect 7 0 8 0;
#X connect 9 0 10 0;
