#N canvas 193 93 673 482 10;
#X obj 23 722 calcula_raio_inicial;
#X obj 184 733 calcula_indice_maximo;
#X obj 21 27 loadbang;
#X obj 20 8 bng 15 250 50 0 empty empty empty 17 7 0 10 -262144 -1
-1;
#X obj 94 120 s le_arquivo;
#X obj 46 393 r le_arquivo;
#X obj 80 143 s calcula_raio;
#X obj 25 663 r calcula_raio;
#X obj 66 166 s calcula_indice;
#X obj 183 664 r calcula_indice;
#X obj 52 190 s itera_salas;
#X obj 24 747 s RAIO_INICIAL;
#X obj 184 754 s INDICE_MAXIMO;
#X obj 219 443 s T;
#X obj 249 443 s I;
#X obj 44 691 r T;
#X obj 140 697 r I;
#X obj 279 443 s ARQUIVO;
#X obj 167 443 s ALFA;
#X obj 246 690 r RAIO_INICIAL;
#X obj 177 788 r itera_salas;
#N canvas 0 0 450 300 (subpatch) 0;
#X array \$0-resposta_impulsiva_direito 44100 float 2;
#X coords 0 1 44100 -1 200 140 1 0 0;
#X restore 293 499 graph;
#N canvas 408 82 524 493 realoca_vetor 0;
#X obj 107 96 f \$0;
#X msg 157 233 \; \$1 resize \$2;
#X obj 103 160 pack s f;
#X msg 103 182 s \$1 \$2;
#X obj 105 31 inlet;
#X text 36 0 Inlet 1: Tamanho novo dos vetores;
#X text 61 276 As mensagens são do tipo: s <nome_do_vetor> <novo_tamanho>
;
#X obj 274 247 print Realocou_vetor;
#X obj 247 153 pack s f;
#X msg 247 175 s \$1 \$2;
#X msg 46 124 \$1-resposta_impulsiva_direito;
#X msg 249 127 \$1-resposta_impulsiva_esquerdo;
#X obj 18 90 s ZERA_VETOR;
#X obj 105 58 t b b f;
#X obj 123 302 r ZERA_VETOR;
#X obj 126 347 f \$0;
#X msg 40 383 \$1-resposta_impulsiva_direito;
#X msg 234 382 \$1-resposta_impulsiva_esquerdo;
#X obj 106 417 pack s f;
#X msg 105 440 s \$1 \$2;
#X msg 162 346 0;
#X obj 124 324 t b b;
#X obj 265 414 pack s f;
#X msg 265 436 s \$1 \$2;
#X msg 182 473 \; \$1 const \$2;
#X connect 0 0 10 0;
#X connect 0 0 11 0;
#X connect 2 0 3 0;
#X connect 3 0 1 0;
#X connect 3 0 7 0;
#X connect 4 0 13 0;
#X connect 8 0 9 0;
#X connect 9 0 1 0;
#X connect 9 0 7 0;
#X connect 10 0 2 0;
#X connect 11 0 8 0;
#X connect 13 0 12 0;
#X connect 13 1 0 0;
#X connect 13 2 8 1;
#X connect 13 2 2 1;
#X connect 14 0 21 0;
#X connect 15 0 16 0;
#X connect 15 0 17 0;
#X connect 16 0 18 0;
#X connect 17 0 22 0;
#X connect 18 0 19 0;
#X connect 19 0 24 0;
#X connect 20 0 18 1;
#X connect 20 0 22 1;
#X connect 21 0 15 0;
#X connect 21 1 20 0;
#X connect 22 0 23 0;
#X connect 23 0 24 0;
#X restore 481 446 pd realoca_vetor;
#X obj 481 423 * 44100;
#X obj 481 400 r T;
#N canvas 273 82 675 493 itera_salas_n3 0;
#X obj 39 24 inlet;
#X obj 134 23 inlet;
#X obj 431 192 Uzi;
#X obj 502 190 Uzi;
#X obj 359 194 Uzi;
#X obj 389 283 int;
#X obj 458 284 int;
#X obj 443 432 pack f f f;
#X obj 518 214 t b b f;
#X obj 445 218 t b f;
#X obj 59 460 posicao_da_fonte_ijk;
#X text 128 1 n;
#X text 42 9 bang;
#X obj 430 138 t f f f;
#X obj 441 461 s INDICES;
#X obj 418 29 r N_MAX;
#X obj 143 53 s N_MAX;
#X obj 92 151 s INICIA_CONTAGEM;
#X obj 37 84 t b b b b;
#X obj 306 123 r INICIA_CONTAGEM;
#X obj 55 381 r INDICES;
#X obj 444 316 r N_MAX;
#X obj 547 363 r N_MAX;
#X obj 589 312 r N_MAX;
#X obj 358 339 expr $f1-$f2-1;
#X obj 461 386 expr $f1-$f2-1;
#X obj 503 335 expr $f1-$f2-1;
#X obj 375 219 t f b f;
#X obj 486 76 expr $f1*2+1;
#X obj 494 107 s N_TOTAL;
#X obj 253 229 r N_TOTAL;
#X msg 225 336 \$1 de \$2 (\$3%);
#X obj 223 313 pack f f f;
#X obj 281 288 expr $f1/$f2*100;
#X obj 327 240 t f f;
#X obj 225 359 print Calculou;
#X obj 208 24 inlet;
#X text 188 -1 tamanho da sala;
#X obj 302 26 inlet;
#X text 315 1 posicao da fonte;
#X obj 301 52 s POS_FONTE;
#X obj 124 407 r TAM_SALA;
#X obj 202 53 s TAM_SALA;
#X obj 165 427 r POS_FONTE;
#X obj 52 571 outlet;
#X obj 116 570 outlet;
#X obj 135 541 list;
#X obj 49 527 list;
#X obj 52 418 t b b l l;
#X obj 27 488 t b b;
#X connect 0 0 18 0;
#X connect 1 0 16 0;
#X connect 2 2 9 0;
#X connect 3 2 8 0;
#X connect 4 2 27 0;
#X connect 5 0 24 0;
#X connect 6 0 25 0;
#X connect 7 0 14 0;
#X connect 8 0 5 0;
#X connect 8 1 6 0;
#X connect 8 2 26 0;
#X connect 9 0 3 0;
#X connect 9 1 6 1;
#X connect 10 0 47 1;
#X connect 13 0 4 1;
#X connect 13 1 2 1;
#X connect 13 2 3 1;
#X connect 15 0 28 0;
#X connect 18 3 17 0;
#X connect 19 0 4 0;
#X connect 20 0 48 0;
#X connect 21 0 24 1;
#X connect 22 0 25 1;
#X connect 23 0 26 1;
#X connect 24 0 7 0;
#X connect 25 0 7 1;
#X connect 26 0 7 2;
#X connect 27 0 34 0;
#X connect 27 1 2 0;
#X connect 27 2 5 1;
#X connect 28 0 13 0;
#X connect 28 0 29 0;
#X connect 30 0 32 1;
#X connect 30 0 33 1;
#X connect 31 0 35 0;
#X connect 32 0 31 0;
#X connect 33 0 32 2;
#X connect 34 0 32 0;
#X connect 34 1 33 0;
#X connect 36 0 42 0;
#X connect 38 0 40 0;
#X connect 41 0 10 2;
#X connect 43 0 10 3;
#X connect 46 0 45 0;
#X connect 47 0 44 0;
#X connect 48 0 49 0;
#X connect 48 1 10 0;
#X connect 48 2 10 1;
#X connect 48 3 46 1;
#X connect 49 0 46 0;
#X connect 49 1 47 0;
#X restore 176 858 pd itera_salas_n3;
#X obj 46 443 s D;
#X obj 72 443 s F;
#X obj 99 443 s OE;
#X obj 132 443 s OD;
#X obj 307 710 r D;
#X obj 242 835 r D;
#X obj 272 833 r F;
#X obj 204 809 r INDICE_MAXIMO;
#X obj 136 950 r RAIO_INICIAL;
#X obj 104 951 r OE;
#X obj 48 975 checa_distancia;
#X obj 354 945 r RAIO_INICIAL;
#X obj 322 946 r OD;
#X obj 266 970 checa_distancia;
#N canvas 261 82 488 493 calcula_absorcao 0;
#X obj 42 20 inlet;
#X obj 92 66 unpack f f f;
#X obj 77 113 expr if ($f1 >= 0 \, $f1 \, $f1*-1) \;;
#X obj 101 144 expr if ($f1 >= 0 \, $f1 \, $f1*-1) \;;
#X obj 129 168 expr if ($f1 >= 0 \, $f1 \, $f1*-1) \;;
#X obj 73 211 expr $f1 + $f2 + $f3;
#X obj 44 43 t b l;
#X obj 52 246 int;
#X obj 215 376 outlet;
#X obj 355 36 inlet;
#X obj 213 319 expr pow( (1-$f2) \, $f1 );
#X text 352 13 alfa;
#X connect 0 0 6 0;
#X connect 1 0 2 0;
#X connect 1 1 3 0;
#X connect 1 2 4 0;
#X connect 2 0 5 0;
#X connect 3 0 5 1;
#X connect 4 0 5 2;
#X connect 5 0 7 1;
#X connect 6 0 7 0;
#X connect 6 1 1 0;
#X connect 7 0 10 0;
#X connect 9 0 10 1;
#X connect 10 0 8 0;
#X restore 242 886 pd calcula_absorcao;
#X obj 352 863 r ALFA;
#X obj 269 1052 expr $f2/$f1;
#X obj 266 995 select 0;
#N canvas 0 0 450 300 (subpatch) 0;
#X array \$0-resposta_impulsiva_esquerdo 44100 float 2;
#X coords 0 1 44100 -1 200 140 1 0 0;
#X restore 22 498 graph;
#X obj 295 1078 expr ($f1*44100/340);
#X obj 294 1103 int;
#X obj 23 1921 soundfiler;
#X obj 23 1872 pack s s s;
#X obj 143 1826 r ARQUIVO;
#X floatatom 23 1945 5 0 0 0 - - -;
#X obj 21 245 s escreve_arquivo;
#X obj 23 1734 r escreve_arquivo;
#X msg 23 1897 write -wave -nframes 44100 ./\$3 \$1 \$2;
#X obj 269 1021 t f f;
#X obj 37 217 s calcula_parte_tardia;
#X obj 139 1188 r calcula_parte_tardia;
#X obj 140 1307 for_inicial_final_incremento;
#X obj 196 1241 r T;
#X obj 288 1242 r I;
#X obj 194 1263 expr $f1*$f2/100;
#X msg 304 1284 0.1;
#X obj 250 1285 r T;
#X obj 158 1377 print Calculando delta;
#X obj 141 1401 expr acos(-1)*4/3*340*340*340 * ( 3*$f1*$f1/10 + 3*$f1/100
+ 1/1000 ) / ($f2*$f3*$f4);
#X obj 347 1345 r D;
#X obj 333 1367 unpack f f f;
#X obj 140 1437 int;
#X obj 140 1332 t f f f;
#X obj 181 1353 s DELTA;
#X obj 116 1481 r DELTA;
#X obj 164 1482 r T;
#X obj 191 1483 r D;
#X obj 107 96 s nomeia_vetores;
#X obj 51 1057 expr $f2/$f1;
#X obj 48 1000 select 0;
#X obj 77 1083 expr ($f1*44100/340);
#X obj 76 1108 int;
#X obj 51 1026 t f f;
#X obj 420 141 f \$0;
#X obj 420 165 pack f s;
#X obj 420 118 t b b;
#X obj 465 140 symbol direito;
#X obj 420 208 s VETOR_DIREITO;
#X obj 130 1107 r VETOR_ESQUERDO;
#X obj 349 1109 r VETOR_DIREITO;
#X obj 74 1506 sorteia_n_vezes;
#X obj 71 1480 t b f;
#X obj 100 1602 r VETOR_ESQUERDO;
#X text 168 1436 Numero de raios na parte tardia;
#X obj 48 1563 expr 44100/340 * pow((1-$f3) \, $f2) / $f1;
#X obj 286 1540 r ALFA;
#X obj 22 1591 float;
#X obj 41 1534 t b f f;
#X obj 435 1484 r DELTA;
#X obj 483 1485 r T;
#X obj 510 1486 r D;
#X obj 393 1509 sorteia_n_vezes;
#X obj 390 1483 t b f;
#X obj 367 1566 expr 44100/340 * pow((1-$f3) \, $f2) / $f1;
#X obj 605 1543 r ALFA;
#X obj 341 1594 float;
#X obj 360 1537 t b f f;
#X obj 419 1605 r VETOR_DIREITO;
#X obj 140 1221 t b b;
#X obj 22 54 t b b b b b b b;
#X obj 174 887 t b b l l;
#X obj 46 416 le_entrada_do_arquivo_texto \$1;
#X obj 346 69 r nomeia_vetores;
#X obj 346 92 t b b;
#X obj 224 142 f \$0;
#X obj 224 166 pack f s;
#X obj 224 119 t b b;
#X obj 224 209 s VETOR_ESQUERDO;
#X obj 269 141 symbol esquerdo;
#X text 39 301 A seçao le_arquivo utiliza o patch le_entrada_do_arquivo_texto
para ler o arquivo texto com formato especificado \, imprimir as variaveis
na tela e enviar para os lugares em que sao utilizadas no patch. Muitas
das variaveis sao triggers para outros metodos \, como o T no subpatch
realoca_vetor ao lado.;
#X obj 149 47 bng 15 250 50 0 empty empty empty 17 7 0 10 -262144 -1
-1;
#X obj 19 1622 atualiza_vetor;
#X obj 100 1804 r VETOR_DIREITO;
#X obj 56 1782 r VETOR_ESQUERDO;
#X obj 67 1848 symbol;
#X obj 23 1848 symbol;
#X msg 420 186 symbol \$1-resposta_impulsiva_\$2;
#X msg 224 187 symbol \$1-resposta_impulsiva_\$2;
#X obj 268 1132 atualiza_vetor;
#X obj 51 1132 atualiza_vetor;
#X obj 338 1625 atualiza_vetor;
#X obj 306 77 bng 15 250 50 0 empty empty empty 17 7 0 10 -262144 -1
-1;
#X text 235 24 A seçao nomeia_vetores cria duas mensagens com o nome
dos vetores e envia para todos os lugares em que tais nomes sao utilizados
uma mensagem |symbol nome_do_vetor<;
#X obj 110 1848 symbol;
#X obj 23 1755 t b b b;
#X text 18 1682 A seção escreve_arquivo recebe os nomes dos vetores
e do arquivo de saida e escreve um arquivo wav quando recebe o trigger.
;
#X connect 0 0 11 0;
#X connect 1 0 12 0;
#X connect 2 0 105 0;
#X connect 3 0 2 0;
#X connect 5 0 107 0;
#X connect 7 0 0 0;
#X connect 9 0 1 0;
#X connect 15 0 0 0;
#X connect 16 0 0 1;
#X connect 19 0 1 1;
#X connect 20 0 25 0;
#X connect 23 0 22 0;
#X connect 24 0 23 0;
#X connect 25 0 106 0;
#X connect 25 1 40 0;
#X connect 30 0 1 2;
#X connect 31 0 25 2;
#X connect 32 0 25 3;
#X connect 33 0 25 1;
#X connect 34 0 36 3;
#X connect 35 0 36 2;
#X connect 36 0 75 0;
#X connect 37 0 39 3;
#X connect 38 0 39 2;
#X connect 39 0 43 0;
#X connect 40 0 42 1;
#X connect 40 0 74 1;
#X connect 41 0 40 1;
#X connect 42 0 124 0;
#X connect 43 1 54 0;
#X connect 45 0 46 0;
#X connect 46 0 124 1;
#X connect 47 0 50 0;
#X connect 48 0 53 0;
#X connect 49 0 129 1;
#X connect 52 0 130 0;
#X connect 53 0 47 0;
#X connect 54 0 42 0;
#X connect 54 1 45 0;
#X connect 56 0 104 0;
#X connect 57 0 68 0;
#X connect 58 0 60 0;
#X connect 59 0 60 1;
#X connect 60 0 57 1;
#X connect 61 0 57 3;
#X connect 62 0 57 2;
#X connect 64 0 67 0;
#X connect 65 0 66 0;
#X connect 66 0 64 1;
#X connect 66 1 64 2;
#X connect 66 2 64 3;
#X connect 67 0 87 0;
#X connect 67 0 98 0;
#X connect 68 0 64 0;
#X connect 68 1 63 0;
#X connect 68 2 69 0;
#X connect 70 0 86 2;
#X connect 71 0 86 3;
#X connect 72 0 86 4;
#X connect 74 0 125 0;
#X connect 75 1 78 0;
#X connect 76 0 77 0;
#X connect 77 0 125 1;
#X connect 78 0 74 0;
#X connect 78 1 76 0;
#X connect 79 0 80 0;
#X connect 80 0 122 0;
#X connect 81 0 79 0;
#X connect 81 1 82 0;
#X connect 82 0 80 1;
#X connect 84 0 125 2;
#X connect 85 0 124 2;
#X connect 86 0 93 0;
#X connect 86 1 90 1;
#X connect 87 0 86 0;
#X connect 87 1 86 1;
#X connect 88 0 117 2;
#X connect 90 0 92 1;
#X connect 91 0 90 2;
#X connect 92 0 117 0;
#X connect 93 0 92 0;
#X connect 93 1 90 0;
#X connect 93 2 117 1;
#X connect 94 0 97 2;
#X connect 95 0 97 3;
#X connect 96 0 97 4;
#X connect 97 0 102 0;
#X connect 97 1 99 1;
#X connect 98 0 97 0;
#X connect 98 1 97 1;
#X connect 99 0 101 1;
#X connect 100 0 99 2;
#X connect 101 0 126 0;
#X connect 102 0 101 0;
#X connect 102 1 99 0;
#X connect 102 2 126 1;
#X connect 103 0 126 2;
#X connect 104 0 57 0;
#X connect 104 1 61 0;
#X connect 105 0 51 0;
#X connect 105 1 55 0;
#X connect 105 2 10 0;
#X connect 105 3 8 0;
#X connect 105 4 6 0;
#X connect 105 5 4 0;
#X connect 105 6 73 0;
#X connect 106 0 36 0;
#X connect 106 1 39 0;
#X connect 106 2 36 1;
#X connect 106 3 39 1;
#X connect 107 0 26 0;
#X connect 107 1 27 0;
#X connect 107 2 28 0;
#X connect 107 3 29 0;
#X connect 107 4 18 0;
#X connect 107 5 13 0;
#X connect 107 6 14 0;
#X connect 107 7 17 0;
#X connect 108 0 109 0;
#X connect 109 0 112 0;
#X connect 109 1 81 0;
#X connect 110 0 111 0;
#X connect 111 0 123 0;
#X connect 112 0 110 0;
#X connect 112 1 114 0;
#X connect 114 0 111 1;
#X connect 116 0 73 0;
#X connect 118 0 120 1;
#X connect 119 0 121 1;
#X connect 120 0 48 1;
#X connect 121 0 48 0;
#X connect 122 0 83 0;
#X connect 123 0 113 0;
#X connect 127 0 109 0;
#X connect 129 0 48 2;
#X connect 130 0 121 0;
#X connect 130 1 120 0;
#X connect 130 2 129 0;
