#N canvas 375 82 598 493 10;
#X obj 278 391 calcula_raio_inicial;
#X obj 289 528 calcula_indice_maximo;
#X obj 21 27 loadbang;
#X obj 20 8 bng 15 250 50 0 empty empty empty 17 7 0 10 -262144 -1
-1;
#X obj 152 87 s le_arquivo;
#X obj 279 22 r le_arquivo;
#X obj 132 111 s calcula_raio;
#X obj 280 332 r calcula_raio;
#X obj 113 134 s calcula_indice;
#X obj 288 459 r calcula_indice;
#X obj 96 160 s itera_salas;
#X obj 279 416 s RAIO_INICIAL;
#X obj 289 549 s INDICE_MAXIMO;
#X obj 447 82 s T;
#X obj 477 81 s I;
#X obj 299 360 r T;
#X obj 395 366 r I;
#X obj 507 84 s ARQUIVO;
#X obj 395 85 s ALFA;
#X obj 239 786 r RAIO_INICIAL;
#X obj 231 831 print raio_inicial;
#X obj 351 485 r RAIO_INICIAL;
#X obj 261 595 r itera_salas;
#N canvas 0 0 450 300 (subpatch) 0;
#X array \$0-resposta_impulsiva 44100 float 2;
#X coords 0 1 44100 -1 200 140 1;
#X restore 34 338 graph;
#N canvas 531 180 450 300 realoca_vetor 0;
#X obj 107 96 f \$0;
#X obj 105 58 t b f;
#X msg 157 233 \; \$1 resize \$2;
#X obj 103 160 pack s f;
#X msg 103 182 s \$1 \$2;
#X obj 105 31 inlet;
#X text 36 0 Inlet 1: Tamanho novo dos vetores;
#X text 61 276 As mensagens são do tipo: s <nome_do_vetor> <novo_tamanho>
;
#X obj 274 247 print Realocou_vetor;
#X msg 105 134 \$1-resposta_impulsiva;
#X connect 0 0 9 0;
#X connect 1 0 0 0;
#X connect 1 1 3 1;
#X connect 3 0 4 0;
#X connect 4 0 2 0;
#X connect 4 0 8 0;
#X connect 5 0 1 0;
#X connect 9 0 3 0;
#X restore 429 251 pd realoca_vetor;
#X obj 431 220 * 44100;
#X obj 431 193 r T;
#X obj 22 55 t b b b b b b b b b;
#N canvas 285 82 675 493 itera_salas_n3 1;
#X obj 39 24 inlet;
#X obj 134 23 inlet;
#X obj 431 192 Uzi;
#X obj 502 190 Uzi;
#X obj 359 194 Uzi;
#X obj 389 283 int;
#X obj 458 284 int;
#X obj 443 432 pack f f f;
#X obj 518 214 t b b f;
#X obj 445 218 t b f;
#X obj 48 458 posicao_da_fonte_ijk;
#X text 128 1 n;
#X text 42 9 bang;
#X obj 430 138 t f f f;
#X obj 441 461 s INDICES;
#X obj 418 29 r N_MAX;
#X obj 143 53 s N_MAX;
#X obj 92 151 s INICIA_CONTAGEM;
#X obj 37 84 t b b b b;
#X obj 306 123 r INICIA_CONTAGEM;
#X obj 39 247 r INDICES;
#X obj 47 316 unpack f f f;
#X obj 36 284 t b l;
#X obj 444 316 r N_MAX;
#X obj 547 363 r N_MAX;
#X obj 589 312 r N_MAX;
#X obj 358 339 expr $f1-$f2-1;
#X obj 461 386 expr $f1-$f2-1;
#X obj 503 335 expr $f1-$f2-1;
#X obj 375 219 t f b f;
#X obj 486 76 expr $f1*2+1;
#X obj 494 107 s N_TOTAL;
#X obj 253 229 r N_TOTAL;
#X msg 225 336 \$1 de \$2 (\$3%);
#X obj 223 313 pack f f f;
#X obj 281 288 expr $f1/$f2*100;
#X obj 327 240 t f f;
#X obj 225 359 print Calculou;
#X obj 208 24 inlet;
#X text 188 -1 tamanho da sala;
#X obj 302 26 inlet;
#X text 315 1 posicao da fonte;
#X obj 301 52 s POS_FONTE;
#X obj 108 377 unpack f f f;
#X obj 122 349 r TAM_SALA;
#X obj 202 53 s TAM_SALA;
#X obj 183 424 unpack f f f;
#X obj 197 396 r POS_FONTE;
#X obj 49 529 pack f f f;
#X obj 277 679 print;
#X connect 0 0 18 0;
#X connect 1 0 16 0;
#X connect 2 2 9 0;
#X connect 3 2 8 0;
#X connect 4 2 29 0;
#X connect 5 0 26 0;
#X connect 6 0 27 0;
#X connect 7 0 14 0;
#X connect 8 0 5 0;
#X connect 8 1 6 0;
#X connect 8 2 28 0;
#X connect 9 0 3 0;
#X connect 9 1 6 1;
#X connect 10 0 48 0;
#X connect 10 1 48 1;
#X connect 10 2 48 2;
#X connect 13 0 4 1;
#X connect 13 1 2 1;
#X connect 13 2 3 1;
#X connect 15 0 30 0;
#X connect 18 3 17 0;
#X connect 19 0 4 0;
#X connect 20 0 22 0;
#X connect 21 0 10 1;
#X connect 21 1 10 2;
#X connect 21 2 10 3;
#X connect 22 0 10 0;
#X connect 22 1 21 0;
#X connect 23 0 26 1;
#X connect 24 0 27 1;
#X connect 25 0 28 1;
#X connect 26 0 7 0;
#X connect 27 0 7 1;
#X connect 28 0 7 2;
#X connect 29 0 36 0;
#X connect 29 1 2 0;
#X connect 29 2 5 1;
#X connect 30 0 13 0;
#X connect 30 0 31 0;
#X connect 32 0 34 1;
#X connect 32 0 35 1;
#X connect 33 0 37 0;
#X connect 34 0 33 0;
#X connect 35 0 34 2;
#X connect 36 0 34 0;
#X connect 36 1 35 0;
#X connect 38 0 45 0;
#X connect 40 0 42 0;
#X connect 43 0 10 4;
#X connect 43 1 10 5;
#X connect 43 2 10 6;
#X connect 44 0 43 0;
#X connect 46 0 10 7;
#X connect 46 1 10 8;
#X connect 46 2 10 9;
#X connect 47 0 46 0;
#X restore 289 683 pd itera_salas_n3;
#X obj 247 651 bng 15 250 50 0 empty empty empty 17 7 0 10 -262144
-1 -1;
#X obj 279 90 s D;
#X obj 302 103 s F;
#X obj 337 125 s OE;
#X obj 366 151 s OD;
#X obj 412 505 r D;
#X obj 373 646 r D;
#X obj 421 656 r F;
#X obj 306 621 r INDICE_MAXIMO;
#X obj 276 51 le_entrada_do_arquivo_texto grande.txt;
#X connect 0 0 11 0;
#X connect 1 0 12 0;
#X connect 2 0 27 0;
#X connect 3 0 2 0;
#X connect 5 0 38 0;
#X connect 7 0 0 0;
#X connect 9 0 1 0;
#X connect 15 0 0 0;
#X connect 16 0 0 1;
#X connect 19 0 20 0;
#X connect 21 0 1 1;
#X connect 22 0 28 0;
#X connect 25 0 24 0;
#X connect 26 0 25 0;
#X connect 27 5 10 0;
#X connect 27 6 8 0;
#X connect 27 7 6 0;
#X connect 27 8 4 0;
#X connect 29 0 28 0;
#X connect 34 0 1 2;
#X connect 35 0 28 2;
#X connect 36 0 28 3;
#X connect 37 0 28 1;
#X connect 38 0 30 0;
#X connect 38 1 31 0;
#X connect 38 2 32 0;
#X connect 38 3 33 0;
#X connect 38 4 18 0;
#X connect 38 5 13 0;
#X connect 38 6 14 0;
#X connect 38 7 17 0;
