#N canvas 417 82 598 493 10;
#X obj 280 51 le_entrada_do_arquivo_texto pequena.txt;
#X obj 278 391 calcula_raio_inicial;
#X obj 296 545 calcula_indice_maximo;
#X obj 278 75 unpack f f f;
#X obj 21 27 loadbang;
#X obj 20 8 bng 15 250 50 0 empty empty empty 17 7 0 10 -262144 -1
-1;
#X obj 152 87 s le_arquivo;
#X obj 279 22 r le_arquivo;
#X obj 132 111 s calcula_raio;
#X obj 280 332 r calcula_raio;
#X obj 113 134 s calcula_indice;
#X obj 288 468 r calcula_indice;
#X obj 22 55 t b b b b b b b b b;
#X obj 97 156 s itera_salas;
#X obj 277 102 s DX;
#X obj 310 102 s DY;
#X obj 344 103 s DZ;
#X obj 342 510 r DX;
#X obj 383 510 r DY;
#X obj 420 510 r DZ;
#X obj 279 416 s RAIO_INICIAL;
#X obj 296 566 s INDICE_MAXIMO;
#X obj 447 82 s T;
#X obj 477 81 s I;
#X obj 299 360 r T;
#X obj 395 366 r I;
#X obj 507 84 s ARQUIVO;
#X obj 278 136 unpack f f f;
#X obj 277 163 s FX;
#X obj 310 163 s FY;
#X obj 344 164 s FZ;
#X obj 279 194 unpack f f f;
#X obj 279 255 unpack f f f;
#X obj 278 221 s OEX;
#X obj 311 221 s OEY;
#X obj 345 222 s OEZ;
#X obj 278 282 s ODX;
#X obj 311 282 s ODY;
#X obj 345 283 s ODZ;
#X obj 395 85 s ALFA;
#X obj 55 293 r INDICE_MAXIMO;
#X obj 47 338 print indice_maximo;
#X obj 41 382 r RAIO_INICIAL;
#X obj 33 427 print raio_inicial;
#X obj 324 489 r RAIO_INICIAL;
#X connect 0 0 3 0;
#X connect 0 1 27 0;
#X connect 0 2 31 0;
#X connect 0 3 32 0;
#X connect 0 4 39 0;
#X connect 0 5 22 0;
#X connect 0 6 23 0;
#X connect 0 7 26 0;
#X connect 1 0 20 0;
#X connect 2 0 21 0;
#X connect 3 0 14 0;
#X connect 3 1 15 0;
#X connect 3 2 16 0;
#X connect 4 0 12 0;
#X connect 5 0 4 0;
#X connect 7 0 0 0;
#X connect 9 0 1 0;
#X connect 11 0 2 0;
#X connect 12 5 13 0;
#X connect 12 6 10 0;
#X connect 12 7 8 0;
#X connect 12 8 6 0;
#X connect 17 0 2 2;
#X connect 18 0 2 3;
#X connect 19 0 2 4;
#X connect 24 0 1 0;
#X connect 25 0 1 1;
#X connect 27 0 28 0;
#X connect 27 1 29 0;
#X connect 27 2 30 0;
#X connect 31 0 33 0;
#X connect 31 1 34 0;
#X connect 31 2 35 0;
#X connect 32 0 36 0;
#X connect 32 1 37 0;
#X connect 32 2 38 0;
#X connect 40 0 41 0;
#X connect 42 0 43 0;
#X connect 44 0 2 1;
