#N canvas 87 109 440 273 10;
#X obj 75 85 inlet;
#X obj 165 83 inlet;
#X text 72 52 bang;
#X text 161 57 delta;
#X text 74 6 Sorteia um indice equivalente ao intervalo [delta \, delta+0.1]
uniformemente;
#X obj 261 88 inlet;
#X text 262 56 Tempo total;
#X text 152 118 0.1s sempre equivalem a 4410 amostras;
#X obj 75 117 random 4410;
#X obj 75 186 +;
#X obj 102 142 * 44100;
#X obj 249 144 * 44100;
#X obj 75 244 outlet;
#X text 73 38 Retorna -1 caso o indice esteja fora do vetor;
#X obj 75 211 expr if ($f1 < $f2 \, $f1 \, -1) \;;
#X obj 251 166 int;
#X obj 100 163 int;
#X connect 0 0 8 0;
#X connect 1 0 10 0;
#X connect 5 0 11 0;
#X connect 8 0 9 0;
#X connect 9 0 14 0;
#X connect 10 0 16 0;
#X connect 11 0 15 0;
#X connect 14 0 12 0;
#X connect 15 0 14 1;
#X connect 16 0 9 1;
