#N canvas 249 119 701 425 10;
#X text 53 14 Recebe um indice como entrada e sorteia o numero de paredes
que atenuam a amostra;
#X obj 90 67 inlet;
#X text 92 46 indice;
#X obj 411 63 inlet;
#X text 411 42 Dimensoes;
#X obj 90 89 sel -1;
#X obj 436 119 unpack f f f;
#X obj 121 190 random 7;
#X obj 65 214 sel 0;
#X obj 114 214 sel 1;
#X obj 166 214 sel 2;
#X obj 255 241 t b;
#X obj 217 213 moses 3;
#X obj 124 128 expr $f1*340/44100;
#X text 78 111 Transformando indice em distancia;
#X obj 410 90 t b l;
#X obj 127 158 t b f;
#X obj 21 292 float;
#X obj 47 266 r valor_x;
#X obj 350 203 s valor_x;
#X obj 91 294 float;
#X obj 157 294 float;
#X obj 227 296 float;
#X obj 435 204 s valor_y;
#X obj 525 206 s valor_z;
#X obj 117 268 r valor_y;
#X obj 183 268 r valor_z;
#X obj 253 270 r valor_diag;
#X obj 385 273 s valor_diag;
#X obj 350 178 expr 1/$f1;
#X obj 435 179 expr 1/$f1;
#X obj 524 181 expr 1/$f1;
#X obj 383 238 expr (1/$f1 + 1/$f2 + 1/$f3 ) / sqrt(3);
#X obj 127 359 expr $f1*$f2;
#X obj 127 395 outlet;
#X connect 1 0 5 0;
#X connect 3 0 15 0;
#X connect 5 1 13 0;
#X connect 6 0 29 0;
#X connect 6 0 32 0;
#X connect 6 1 30 0;
#X connect 6 1 32 1;
#X connect 6 2 31 0;
#X connect 6 2 32 2;
#X connect 7 0 8 0;
#X connect 7 0 9 0;
#X connect 7 0 10 0;
#X connect 7 0 12 0;
#X connect 8 0 17 0;
#X connect 9 0 20 0;
#X connect 10 0 21 0;
#X connect 11 0 22 0;
#X connect 12 1 11 0;
#X connect 13 0 16 0;
#X connect 15 1 6 0;
#X connect 16 0 7 0;
#X connect 16 1 33 1;
#X connect 17 0 33 0;
#X connect 18 0 17 1;
#X connect 20 0 33 0;
#X connect 21 0 33 0;
#X connect 22 0 33 0;
#X connect 25 0 20 1;
#X connect 26 0 21 1;
#X connect 27 0 22 1;
#X connect 29 0 19 0;
#X connect 30 0 23 0;
#X connect 31 0 24 0;
#X connect 32 0 28 0;
#X connect 33 0 34 0;
