#N canvas 957 189 450 300 10;
#X obj 83 54 osc~ 440;
#X obj 161 57 line~;
#X floatatom 220 32 5 0 0 0 - - -;
#X obj 194 103 *~;
#X obj 134 195 output~;
#X obj 147 7 hsl 128 15 0 -1 0 0 empty empty empty -2 -8 0 10 -262144
-1 -1 0 1;
#N canvas 310 127 732 691 multiplica~ 1;
#X obj 21 184 inlet~;
#N canvas 0 0 450 300 (subpatch) 0;
#X array \$0-aux1 64 float 2;
#X coords 0 1 64 -1 200 140 1 0 0;
#X restore 18 30 graph;
#N canvas 0 0 450 300 (subpatch) 0;
#X array \$0-aux2 64 float 2;
#X coords 0 1 64 -1 200 140 1 0 0;
#X restore 233 31 graph;
#X obj 20 240 tabsend~ \$0-aux1;
#X obj 139 184 inlet~;
#X obj 138 240 tabsend~ \$0-aux2;
#X obj 260 258 bang~;
#X obj 35 309 loadbang;
#X obj 16 476 f \$0;
#X obj 169 468 f \$0;
#X floatatom 238 499 5 0 0 0 - - -;
#N canvas 141 309 524 574 conta_ate_X 0;
#X obj 38 -32 inlet;
#X obj 160 22 inlet;
#X obj 39 91 outlet;
#X text 78 -35 Bang inicial;
#X text 203 23 Altera valor de X;
#X obj 89 90 print saiu;
#X obj 40 22 float;
#X obj 94 21 + 1;
#X text 112 -15 comment;
#X msg 38 -3 0;
#X obj 39 51 t f f;
#X obj 95 51 moses 1;
#X connect 0 0 9 0;
#X connect 1 0 11 1;
#X connect 6 0 10 0;
#X connect 7 0 11 0;
#X connect 9 0 6 0;
#X connect 10 0 7 0;
#X connect 10 1 2 0;
#X connect 11 0 6 0;
#X restore 239 473 pd conta_ate_X;
#X obj 102 423 loadbang;
#X text 44 400 Seta os nomes dos vetores;
#X msg 16 499 s \$1-aux1;
#X obj 93 470 f \$0;
#X msg 93 493 s \$1-aux2;
#X msg 169 491 s \$1-resp;
#N canvas 0 0 450 300 (subpatch) 0;
#X array \$0-resp 64 float 2;
#X coords 0 1 64 -1 200 140 1 0 0;
#X restore 497 33 graph;
#X obj 62 597 outlet~;
#X obj 62 572 tabreceive~ \$0-resp;
#X obj 306 361 timer;
#X obj 306 384 * 44.1;
#X obj 306 409 select;
#X floatatom 359 409 5 0 0 0 - - -;
#X obj 287 328 t b b b;
#N canvas 226 215 496 433 realoca_vetores 0;
#X obj 100 114 f \$0;
#X obj 42 181 pack s f;
#X msg 42 151 \$1-aux1;
#X obj 98 76 t b f;
#X msg 121 256 \; \$1 resize \$2;
#X msg 42 211 s \$1 \$2;
#X obj 107 180 pack s f;
#X obj 173 179 pack s f;
#X msg 107 150 \$1-aux2;
#X msg 173 149 \$1-resp;
#X msg 123 214 s \$1 \$2;
#X msg 200 216 s \$1 \$2;
#X obj 98 49 inlet;
#X text 29 18 Inlet 1: Tamanho novo dos vetores;
#X text 273 141 As mensagens são do tipo: s <nome_do_vetor> <novo_tamanho>
;
#X obj 273 263 print Realocou_vetor;
#X connect 0 0 2 0;
#X connect 0 0 8 0;
#X connect 0 0 9 0;
#X connect 1 0 5 0;
#X connect 2 0 1 0;
#X connect 3 0 0 0;
#X connect 3 1 1 1;
#X connect 3 1 6 1;
#X connect 3 1 7 1;
#X connect 5 0 4 0;
#X connect 5 0 15 0;
#X connect 6 0 10 0;
#X connect 7 0 11 0;
#X connect 8 0 6 0;
#X connect 9 0 7 0;
#X connect 10 0 4 0;
#X connect 10 0 15 0;
#X connect 11 0 4 0;
#X connect 11 0 15 0;
#X connect 12 0 3 0;
#X restore 410 500 pd realoca_vetores;
#X obj 37 372 s N_INICIAL;
#X obj 414 399 r N_INICIAL;
#X text 380 368 O select é responsável por chamar o realoca_vetores
apenas quando o N muda.;
#N canvas 114 319 660 416 primeira_ou_segunda 0;
#X text -192 -279 Todos os outros passam por aqui.;
#X text -536 -273 Somente o primeiro bang passa por aqui.;
#X obj -318 -457 inlet;
#X obj -268 -456 inlet;
#X msg -217 -380 0;
#X msg -250 -380 1;
#X obj -265 -346 float;
#X obj -316 -423 t b b;
#X obj -265 -318 sel 0;
#X obj -285 -277 outlet;
#X obj -235 -277 outlet;
#X text -410 -456 Inlet 1: Bang;
#X text -220 -456 Inlet 2: Reset;
#X connect 2 0 7 0;
#X connect 3 0 4 0;
#X connect 4 0 6 1;
#X connect 5 0 6 1;
#X connect 6 0 8 0;
#X connect 7 0 5 0;
#X connect 7 1 6 0;
#X connect 8 0 9 0;
#X connect 8 1 10 0;
#X restore 228 292 pd primeira_ou_segunda;
#X obj 34 287 bng 15 250 50 0 empty empty empty 17 7 0 10 -262144 -1
-1;
#X text 18 265 Seta o tamanho inicial do bloco;
#X obj 229 325 t b b;
#X text 369 334 Na primeira vez \, seta o timer e conta_ate_X;
#X obj 410 470 print contando_ate;
#N canvas 879 389 450 300 dsp_ligou 0;
#X obj 50 57 r pd;
#X obj 50 82 unpack s f;
#X obj 50 106 sel dsp;
#X obj 50 132 f;
#X obj 50 183 outlet;
#X text 52 24 Libera um bang sempre que o DSP liga;
#X obj 50 157 sel 1;
#X obj 120 159 print mensagem;
#X connect 0 0 1 0;
#X connect 1 0 2 0;
#X connect 1 1 3 1;
#X connect 2 0 3 0;
#X connect 3 0 6 0;
#X connect 6 0 4 0;
#X restore 104 288 pd dsp_ligou;
#X obj 355 258 r reset;
#X obj 104 338 s reset;
#X msg 36 339 64;
#N canvas 276 174 623 703 multiplica_elemento 0;
#X obj 17 10 inlet;
#X obj 78 9 inlet;
#X obj 127 12 inlet;
#X obj 188 11 inlet;
#X floatatom 204 259 5 0 0 0 - - -;
#X floatatom 120 399 5 0 0 0 - - -;
#X obj 98 232 tabread;
#X msg 99 205 set \$1;
#X msg 203 205 set \$1;
#X obj 203 233 tabread;
#X obj 116 561 tabwrite;
#X obj 15 38 s x;
#X obj 81 38 s y;
#X obj 125 39 s z;
#X obj 100 179 r x;
#X obj 203 182 r y;
#X floatatom 101 262 5 0 0 0 - - -;
#X obj 191 37 s i;
#X floatatom 48 210 5 0 0 0 - - -;
#X obj 48 180 r le_x;
#X floatatom 254 208 5 0 0 0 - - -;
#X obj 254 178 r le_y;
#X text 50 150 Entrada 1 (x);
#X text 201 149 Entrada 2 (y);
#X text 14 58 Inlet 1: Seta nome do vetor de entrada 1 (x);
#X text 14 78 Inlet 2: Seta nome do vetor de entrada 2 (y);
#X text 15 99 Inlet 3: Seta nome do vetor de saida (z);
#X text 15 120 Inlet 4: Faz z[i] := x[i]+y[i] \, onde i eh o numero
recebido;
#X obj 70 498 r z;
#X obj 167 520 r seta_indice;
#X obj 330 24 r i;
#X obj 435 132 s le_x;
#X obj 436 159 s le_y;
#X obj 433 108 s seta_indice;
#X obj 439 209 s escreve;
#X msg 69 529 set \$1;
#X obj 19 310 print setou_x;
#X obj 280 282 print setou_y;
#X obj 61 610 print setou_z;
#X obj 198 561 print indice;
#X obj 135 488 spigot;
#X obj 201 339 r escreve;
#X msg 185 451 1;
#X obj 430 83 s reseta_spigot;
#X msg 226 451 0;
#X obj 226 425 r reseta_spigot;
#X obj 183 370 t b b;
#X obj 199 583 print escreveu;
#X text 249 365 O spigot serve para bloquear as mensagens ate ter recebido
a mensagem de escrita;
#X obj 331 57 t b b f f f b;
#X obj 149 341 *;
#X obj 439 182 s multiplica;
#X obj 146 283 r multiplica;
#X connect 0 0 11 0;
#X connect 1 0 12 0;
#X connect 2 0 13 0;
#X connect 3 0 17 0;
#X connect 4 0 50 1;
#X connect 5 0 40 0;
#X connect 6 0 16 0;
#X connect 7 0 6 0;
#X connect 7 0 36 0;
#X connect 8 0 9 0;
#X connect 8 0 37 0;
#X connect 9 0 4 0;
#X connect 14 0 7 0;
#X connect 15 0 8 0;
#X connect 16 0 50 0;
#X connect 18 0 6 0;
#X connect 19 0 18 0;
#X connect 20 0 9 0;
#X connect 21 0 20 0;
#X connect 28 0 35 0;
#X connect 29 0 10 1;
#X connect 30 0 49 0;
#X connect 35 0 10 0;
#X connect 35 0 38 0;
#X connect 40 0 10 0;
#X connect 41 0 46 0;
#X connect 42 0 40 1;
#X connect 44 0 40 1;
#X connect 45 0 44 0;
#X connect 46 0 5 0;
#X connect 46 1 42 0;
#X connect 49 0 34 0;
#X connect 49 1 51 0;
#X connect 49 2 32 0;
#X connect 49 3 31 0;
#X connect 49 4 33 0;
#X connect 49 5 43 0;
#X connect 50 0 5 0;
#X connect 52 0 50 0;
#X restore 114 525 pd multiplica_elemento;
#X obj 356 441 t f f f;
#X obj 412 425 t f f f;
#X connect 0 0 3 0;
#X connect 4 0 5 0;
#X connect 6 0 30 0;
#X connect 7 0 39 0;
#X connect 7 0 38 0;
#X connect 8 0 14 0;
#X connect 9 0 17 0;
#X connect 10 0 40 3;
#X connect 11 0 10 0;
#X connect 12 0 8 0;
#X connect 12 0 9 0;
#X connect 12 0 15 0;
#X connect 14 0 40 0;
#X connect 15 0 16 0;
#X connect 16 0 40 1;
#X connect 17 0 40 2;
#X connect 20 0 19 0;
#X connect 21 0 22 0;
#X connect 22 0 23 0;
#X connect 23 1 24 0;
#X connect 24 0 23 1;
#X connect 24 0 41 0;
#X connect 25 0 11 0;
#X connect 25 1 21 0;
#X connect 25 2 21 1;
#X connect 28 0 42 0;
#X connect 30 0 33 0;
#X connect 30 1 25 0;
#X connect 31 0 7 0;
#X connect 33 0 11 0;
#X connect 33 1 21 0;
#X connect 36 0 38 0;
#X connect 37 0 30 1;
#X connect 39 0 27 0;
#X connect 41 0 11 1;
#X connect 41 1 26 0;
#X connect 41 2 35 0;
#X connect 42 0 11 1;
#X connect 42 1 24 0;
#X connect 42 2 35 0;
#X restore 71 111 pd multiplica~;
#X connect 0 0 3 0;
#X connect 0 0 6 0;
#X connect 1 0 3 1;
#X connect 1 0 6 1;
#X connect 2 0 1 0;
#X connect 5 0 2 0;
#X connect 6 0 4 0;
#X connect 6 0 4 1;
