#N canvas 945 209 450 300 10;
#X obj 83 54 osc~ 440;
#X obj 161 57 line~;
#X floatatom 220 32 5 0 0 0 - - -;
#X obj 194 103 *~;
#X obj 134 195 output~;
#X obj 147 7 hsl 128 15 0 -1 0 0 empty empty empty -2 -8 0 10 -262144
-1 -1 12700 1;
#N canvas 298 147 732 691 multiplica~ 1;
#X obj 21 184 inlet~;
#N canvas 0 0 450 300 (subpatch) 0;
#X array \$0-aux1 64 float 2;
#X coords 0 1 64 -1 200 140 1 0 0;
#X restore 18 30 graph;
#N canvas 0 0 450 300 (subpatch) 0;
#X array \$0-aux2 64 float 2;
#X coords 0 1 64 -1 200 140 1 0 0;
#X restore 233 31 graph;
#X obj 20 240 tabsend~ \$0-aux1;
#X obj 139 184 inlet~;
#X obj 138 240 tabsend~ \$0-aux2;
#X obj 260 258 bang~;
#X obj 35 309 loadbang;
#X floatatom 280 497 5 0 0 0 - - -;
#N canvas 0 0 450 300 (subpatch) 0;
#X array \$0-resp 64 float 2;
#X coords 0 1 64 -1 200 140 1 0 0;
#X restore 497 33 graph;
#X obj 62 597 outlet~;
#X obj 62 572 tabreceive~ \$0-resp;
#X obj 306 361 timer;
#X obj 306 384 * 44.1;
#X obj 306 409 select;
#X floatatom 359 409 5 0 0 0 - - -;
#X obj 287 328 t b b b;
#N canvas 226 215 496 433 realoca_vetores 0;
#X obj 100 114 f \$0;
#X obj 42 181 pack s f;
#X msg 42 151 \$1-aux1;
#X obj 98 76 t b f;
#X msg 121 256 \; \$1 resize \$2;
#X msg 42 211 s \$1 \$2;
#X obj 107 180 pack s f;
#X obj 173 179 pack s f;
#X msg 107 150 \$1-aux2;
#X msg 173 149 \$1-resp;
#X msg 123 214 s \$1 \$2;
#X msg 200 216 s \$1 \$2;
#X obj 98 49 inlet;
#X text 29 18 Inlet 1: Tamanho novo dos vetores;
#X text 273 141 As mensagens são do tipo: s <nome_do_vetor> <novo_tamanho>
;
#X obj 273 263 print Realocou_vetor;
#X connect 0 0 2 0;
#X connect 0 0 8 0;
#X connect 0 0 9 0;
#X connect 1 0 5 0;
#X connect 2 0 1 0;
#X connect 3 0 0 0;
#X connect 3 1 1 1;
#X connect 3 1 6 1;
#X connect 3 1 7 1;
#X connect 5 0 4 0;
#X connect 5 0 15 0;
#X connect 6 0 10 0;
#X connect 7 0 11 0;
#X connect 8 0 6 0;
#X connect 9 0 7 0;
#X connect 10 0 4 0;
#X connect 10 0 15 0;
#X connect 11 0 4 0;
#X connect 11 0 15 0;
#X connect 12 0 3 0;
#X restore 410 500 pd realoca_vetores;
#X obj 37 372 s N_INICIAL;
#X obj 414 399 r N_INICIAL;
#X text 380 368 O select é responsável por chamar o realoca_vetores
apenas quando o N muda.;
#N canvas 114 319 660 416 primeira_ou_segunda 0;
#X text -192 -279 Todos os outros passam por aqui.;
#X text -536 -273 Somente o primeiro bang passa por aqui.;
#X obj -318 -457 inlet;
#X obj -268 -456 inlet;
#X msg -217 -380 0;
#X msg -250 -380 1;
#X obj -265 -346 float;
#X obj -316 -423 t b b;
#X obj -265 -318 sel 0;
#X obj -285 -277 outlet;
#X obj -235 -277 outlet;
#X text -410 -456 Inlet 1: Bang;
#X text -220 -456 Inlet 2: Reset;
#X connect 2 0 7 0;
#X connect 3 0 4 0;
#X connect 4 0 6 1;
#X connect 5 0 6 1;
#X connect 6 0 8 0;
#X connect 7 0 5 0;
#X connect 7 1 6 0;
#X connect 8 0 9 0;
#X connect 8 1 10 0;
#X restore 228 292 pd primeira_ou_segunda;
#X obj 34 287 bng 15 250 50 0 empty empty empty 17 7 0 10 -262144 -1
-1;
#X text 18 265 Seta o tamanho inicial do bloco;
#X obj 229 325 t b b;
#X text 369 334 Na primeira vez \, seta o timer e conta_ate_X;
#X obj 410 470 print contando_ate;
#N canvas 879 389 450 300 dsp_ligou 0;
#X obj 50 57 r pd;
#X obj 50 82 unpack s f;
#X obj 50 106 sel dsp;
#X obj 50 132 f;
#X obj 50 183 outlet;
#X text 52 24 Libera um bang sempre que o DSP liga;
#X obj 50 157 sel 1;
#X obj 120 159 print mensagem;
#X connect 0 0 1 0;
#X connect 1 0 2 0;
#X connect 1 1 3 1;
#X connect 2 0 3 0;
#X connect 3 0 6 0;
#X connect 6 0 4 0;
#X restore 104 288 pd dsp_ligou;
#X obj 355 258 r reset;
#X obj 104 338 s reset;
#X msg 36 339 64;
#X obj 356 441 t f f f;
#X obj 412 425 t f f f;
#N canvas 585 471 450 300 contador 0;
#X obj 39 31 inlet;
#X obj 131 33 inlet;
#X obj 105 130 outlet;
#X text 22 13 Bang inicial;
#X obj 90 64 Uzi;
#X obj 105 99 - 1;
#X text 102 13 Altera valor maximo;
#X connect 0 0 4 0;
#X connect 1 0 4 1;
#X connect 4 2 5 0;
#X connect 5 0 2 0;
#X restore 281 473 pd contador;
#N canvas 221 120 923 760 multiplica_elemento 0;
#X obj 128 240 inlet;
#X floatatom 515 349 5 0 0 0 - - -;
#X floatatom 431 489 5 0 0 0 - - -;
#X obj 409 322 tabread;
#X obj 514 323 tabread;
#X obj 427 651 tabwrite;
#X floatatom 412 352 5 0 0 0 - - -;
#X floatatom 360 295 5 0 0 0 - - -;
#X obj 360 265 r le_x;
#X floatatom 580 293 5 0 0 0 - - -;
#X obj 583 267 r le_y;
#X obj 478 610 r seta_indice;
#X obj 232 344 s le_x;
#X obj 233 371 s le_y;
#X obj 230 320 s seta_indice;
#X obj 236 421 s escreve;
#X obj 46 183 print setou_x;
#X obj 509 651 print indice;
#X obj 446 578 spigot;
#X obj 512 429 r escreve;
#X msg 496 541 1;
#X obj 227 295 s reseta_spigot;
#X msg 537 541 0;
#X obj 537 515 r reseta_spigot;
#X obj 494 460 t b b;
#X obj 510 673 print escreveu;
#X text 560 455 O spigot serve para bloquear as mensagens ate ter recebido
a mensagem de escrita;
#X obj 128 269 t b b f f f b;
#X text 370 241 Vetor 1 (x);
#X text 513 242 Vetor 2 (y);
#X text 42 215 Inlet: Faz z[i] := x[i]+y[i] \, onde i eh o numero recebido
;
#X msg 69 131 set \$1;
#X obj 69 84 f \$0;
#X msg 69 107 s \$1-aux1;
#X obj 69 160 send seta_x;
#X msg 176 129 set \$1;
#X obj 176 82 f \$0;
#X obj 176 45 loadbang;
#X msg 176 105 s \$1-aux2;
#X obj 153 181 print setou_y;
#X obj 176 158 send seta_y;
#X msg 278 130 set \$1;
#X obj 278 83 f \$0;
#X msg 278 106 s \$1-resp;
#X obj 255 182 print setou_z;
#X text 113 17 Inicializa nomes dos vetores;
#X obj 278 159 s seta_z;
#X obj 410 297 r seta_x;
#X obj 514 296 r seta_y;
#X obj 372 619 r seta_z;
#X obj 460 431 *;
#X obj 236 394 s multiplica;
#X obj 457 373 r multiplica;
#X connect 0 0 27 0;
#X connect 1 0 50 1;
#X connect 2 0 18 0;
#X connect 3 0 6 0;
#X connect 4 0 1 0;
#X connect 6 0 50 0;
#X connect 7 0 3 0;
#X connect 8 0 7 0;
#X connect 9 0 4 0;
#X connect 10 0 9 0;
#X connect 11 0 5 1;
#X connect 18 0 5 0;
#X connect 19 0 24 0;
#X connect 20 0 18 1;
#X connect 22 0 18 1;
#X connect 23 0 22 0;
#X connect 24 0 2 0;
#X connect 24 1 20 0;
#X connect 27 0 15 0;
#X connect 27 1 51 0;
#X connect 27 2 13 0;
#X connect 27 3 12 0;
#X connect 27 4 14 0;
#X connect 27 5 21 0;
#X connect 31 0 34 0;
#X connect 31 0 16 0;
#X connect 32 0 33 0;
#X connect 33 0 31 0;
#X connect 35 0 40 0;
#X connect 35 0 39 0;
#X connect 36 0 38 0;
#X connect 37 0 36 0;
#X connect 37 0 32 0;
#X connect 37 0 42 0;
#X connect 38 0 35 0;
#X connect 41 0 46 0;
#X connect 41 0 44 0;
#X connect 42 0 43 0;
#X connect 43 0 41 0;
#X connect 47 0 3 0;
#X connect 48 0 4 0;
#X connect 49 0 5 0;
#X connect 50 0 2 0;
#X connect 52 0 50 0;
#X restore 282 525 pd multiplica_elemento;
#X connect 0 0 3 0;
#X connect 4 0 5 0;
#X connect 6 0 21 0;
#X connect 7 0 30 0;
#X connect 7 0 29 0;
#X connect 8 0 34 0;
#X connect 11 0 10 0;
#X connect 12 0 13 0;
#X connect 13 0 14 0;
#X connect 14 1 15 0;
#X connect 15 0 14 1;
#X connect 15 0 31 0;
#X connect 16 0 33 0;
#X connect 16 1 12 0;
#X connect 16 2 12 1;
#X connect 19 0 32 0;
#X connect 21 0 24 0;
#X connect 21 1 16 0;
#X connect 22 0 7 0;
#X connect 24 0 33 0;
#X connect 24 1 12 0;
#X connect 27 0 29 0;
#X connect 28 0 21 1;
#X connect 30 0 18 0;
#X connect 31 0 33 1;
#X connect 31 1 17 0;
#X connect 31 2 26 0;
#X connect 32 0 33 1;
#X connect 32 1 15 0;
#X connect 32 2 26 0;
#X connect 33 0 8 0;
#X restore 71 111 pd multiplica~;
#X connect 0 0 3 0;
#X connect 0 0 6 0;
#X connect 1 0 3 1;
#X connect 1 0 6 1;
#X connect 2 0 1 0;
#X connect 5 0 2 0;
#X connect 6 0 4 0;
#X connect 6 0 4 1;
