#N canvas 602 149 598 433 10;
#X obj 159 250 output~;
#X floatatom 53 105 5 0 0 0 - - -;
#X obj 156 156 osc~ 440;
#N canvas 253 170 732 691 oscilador~ 1;
#X obj 260 258 bang~;
#X obj 297 86 loadbang;
#N canvas 0 0 450 300 (subpatch) 0;
#X array \$0-resp 64 float 2;
#X coords 0 1 64 -1 200 140 1 0 0;
#X restore 497 33 graph;
#X obj 50 589 outlet~;
#X obj 49 563 tabreceive~ \$0-resp;
#X obj 306 361 timer;
#X obj 306 384 * 44.1;
#X obj 306 409 select;
#X floatatom 359 409 5 0 0 0 - - -;
#X obj 287 328 t b b b;
#N canvas 217 230 496 433 realoca_vetores 0;
#X obj 98 117 f \$0;
#X obj 96 79 t b f;
#X msg 148 254 \; \$1 resize \$2;
#X obj 94 181 pack s f;
#X obj 174 180 pack s f;
#X msg 174 156 \$1-resp;
#X msg 94 203 s \$1 \$2;
#X msg 174 205 s \$1 \$2;
#X obj 96 52 inlet;
#X text 27 21 Inlet 1: Tamanho novo dos vetores;
#X text 52 297 As mensagens são do tipo: s <nome_do_vetor> <novo_tamanho>
;
#X obj 265 268 print Realocou_vetor;
#X msg 96 155 \$1-entrada;
#X connect 0 0 12 0;
#X connect 0 0 5 0;
#X connect 1 0 0 0;
#X connect 1 1 3 1;
#X connect 1 1 4 1;
#X connect 3 0 6 0;
#X connect 4 0 7 0;
#X connect 5 0 4 0;
#X connect 6 0 2 0;
#X connect 6 0 11 0;
#X connect 7 0 2 0;
#X connect 7 0 11 0;
#X connect 8 0 1 0;
#X connect 12 0 3 0;
#X restore 377 537 pd realoca_vetores;
#X obj 299 149 s N_INICIAL;
#X obj 432 416 r N_INICIAL;
#X text 380 368 O select é responsável por chamar o realoca_vetores
apenas quando o N muda.;
#N canvas 114 319 600 475 primeira_ou_segunda 0;
#X text 324 198 Todos os outros passam por aqui.;
#X text -20 204 Somente o primeiro bang passa por aqui.;
#X obj 198 20 inlet;
#X obj 248 21 inlet;
#X msg 299 97 0;
#X msg 266 97 1;
#X obj 251 131 float;
#X obj 200 54 t b b;
#X obj 251 159 sel 0;
#X obj 231 200 outlet;
#X obj 281 200 outlet;
#X text 106 21 Inlet 1: Bang;
#X text 296 21 Inlet 2: Reset;
#X connect 2 0 7 0;
#X connect 3 0 4 0;
#X connect 4 0 6 1;
#X connect 5 0 6 1;
#X connect 6 0 8 0;
#X connect 7 0 5 0;
#X connect 7 1 6 0;
#X connect 8 0 9 0;
#X connect 8 1 10 0;
#X restore 228 292 pd primeira_ou_segunda;
#X obj 296 64 bng 15 250 50 0 empty empty empty 17 7 0 10 -262144 -1
-1;
#X text 280 42 Seta o tamanho inicial do bloco;
#X obj 229 325 t b b;
#X text 369 334 Na primeira vez \, seta o timer e conta_ate_X;
#X obj 393 508 print contando_ate;
#N canvas 879 389 450 300 dsp_ligou 0;
#X obj 50 57 r pd;
#X obj 50 82 unpack s f;
#X obj 50 106 sel dsp;
#X obj 50 132 f;
#X obj 50 183 outlet;
#X text 52 24 Libera um bang sempre que o DSP liga;
#X obj 50 157 sel 1;
#X obj 120 159 print mensagem;
#X connect 0 0 1 0;
#X connect 1 0 2 0;
#X connect 1 1 3 1;
#X connect 2 0 3 0;
#X connect 3 0 6 0;
#X connect 6 0 4 0;
#X restore 366 65 pd dsp_ligou;
#X obj 355 258 r reset;
#X obj 366 115 s reset;
#X msg 298 116 64;
#N canvas 674 291 440 452 phi_de_n 0;
#X obj 62 247 outlet;
#X obj 51 132 float;
#X floatatom 115 144 5 0 0 0 - - -;
#X obj 115 74 inlet;
#X obj 115 123 expr 2 * acos(-1) * $f1 / 44100;
#X obj 100 167 +;
#X text 154 144 2pi*x[n]/44100;
#X obj 100 222 expr if($f1 > 2*acos(-1) \, $f1-(2*acos(-1)) \, $f1)
;
#X obj 51 105 inlet;
#X text 14 15 Inlet 1: Bang para recalcular phi_de_n;
#X obj 100 194 t f f;
#X obj 115 99 tabread \$0-entrada;
#X text 112 42 Inlet 2 (cold): Atualiza Frequencia com o indice escolhido
do vetor;
#X connect 1 0 5 0;
#X connect 2 0 5 1;
#X connect 3 0 11 0;
#X connect 4 0 2 0;
#X connect 5 0 10 0;
#X connect 7 0 1 1;
#X connect 8 0 1 0;
#X connect 10 0 0 0;
#X connect 10 1 7 0;
#X connect 11 0 4 0;
#X restore 34 201 pd phi_de_n;
#X obj 33 230 cos;
#X obj 46 320 count;
#X floatatom 47 355 5 0 0 0 - - -;
#X obj 97 255 bng 15 250 50 0 empty empty empty 17 7 0 10 -262144 -1
-1;
#X obj 19 400 tabwrite \$0-resp;
#X obj 32 255 t f b;
#X msg 101 298 64;
#X obj 99 276 loadbang;
#X obj 436 444 t f f f;
#X obj 357 437 t f f f;
#X obj 311 463 t f f;
#N canvas 506 600 450 300 contador 0;
#X obj 40 29 inlet;
#X obj 132 31 inlet;
#X obj 106 128 outlet;
#X text 23 11 Bang inicial;
#X obj 91 62 Uzi;
#X obj 106 97 - 1;
#X text 103 11 Altera valor maximo;
#X connect 0 0 4 0;
#X connect 1 0 4 1;
#X connect 4 2 5 0;
#X connect 5 0 2 0;
#X restore 226 497 pd contador;
#X obj 36 113 inlet~;
#N canvas 0 0 450 300 (subpatch) 0;
#X array \$0-entrada 64 float 2;
#X coords 0 0 64 20000 200 140 1 0 0;
#X restore 45 -44 graph;
#X obj 35 169 tabsend~ \$0-entrada;
#X obj 214 538 t b f;
#X connect 0 0 14 0;
#X connect 1 0 23 0;
#X connect 1 0 22 0;
#X connect 4 0 3 0;
#X connect 5 0 6 0;
#X connect 6 0 7 0;
#X connect 7 1 8 0;
#X connect 8 0 7 1;
#X connect 8 0 34 0;
#X connect 9 0 36 0;
#X connect 9 1 5 0;
#X connect 9 2 5 1;
#X connect 12 0 33 0;
#X connect 14 0 17 0;
#X connect 14 1 9 0;
#X connect 15 0 1 0;
#X connect 17 0 36 0;
#X connect 17 1 5 0;
#X connect 20 0 22 0;
#X connect 21 0 14 1;
#X connect 23 0 11 0;
#X connect 24 0 25 0;
#X connect 25 0 30 0;
#X connect 26 0 27 0;
#X connect 27 0 29 1;
#X connect 28 0 32 0;
#X connect 30 0 29 0;
#X connect 30 1 26 0;
#X connect 31 0 26 1;
#X connect 32 0 31 0;
#X connect 33 0 35 0;
#X connect 33 1 8 0;
#X connect 33 2 19 0;
#X connect 34 0 35 0;
#X connect 34 1 10 0;
#X connect 34 2 19 0;
#X connect 35 0 36 1;
#X connect 35 1 26 1;
#X connect 36 0 40 0;
#X connect 37 0 39 0;
#X connect 40 0 24 0;
#X connect 40 1 24 1;
#X restore 159 199 pd oscilador~;
#X msg 34 55 300;
#X msg 120 60 600;
#X obj 40 29 bng 15 250 50 0 empty empty empty 17 7 0 10 -262144 -1
-1;
#X obj 129 33 bng 15 250 50 0 empty empty empty 17 7 0 10 -262144 -1
-1;
#X obj 172 27 bng 15 250 50 0 empty empty empty 17 7 0 10 -262144 -1
-1;
#X msg 163 54 1200;
#X obj 226 31 bng 15 250 50 0 empty empty empty 17 7 0 10 -262144 -1
-1;
#X msg 217 58 10000;
#X msg 72 61 440;
#X obj 70 30 loadbang;
#X obj 292 191 osc~;
#X obj 293 225 output~;
#X obj 292 127 *~ 200;
#X obj 292 156 +~ 400;
#X msg 291 65 300;
#X obj 291 96 osc~;
#X text 346 125 [-200...+200] 300x/seg;
#X text 329 96 oscilador entre [-1...+1] 300x/seg;
#X text 342 156 [+200...+600] 300x/seg <-- ESTA e' a frequencia instantanea
do oscilador que ouvimos;
#X obj 292 17 bng 15 250 50 0 empty empty empty 17 7 0 10 -262144 -1
-1;
#X obj 100 166 sig~;
#X connect 1 0 2 0;
#X connect 1 0 24 0;
#X connect 3 0 0 0;
#X connect 4 0 1 0;
#X connect 5 0 1 0;
#X connect 6 0 4 0;
#X connect 7 0 5 0;
#X connect 8 0 9 0;
#X connect 9 0 1 0;
#X connect 10 0 11 0;
#X connect 11 0 1 0;
#X connect 12 0 1 0;
#X connect 13 0 12 0;
#X connect 14 0 15 0;
#X connect 16 0 17 0;
#X connect 17 0 14 0;
#X connect 18 0 19 0;
#X connect 19 0 16 0;
#X connect 23 0 18 0;
#X connect 24 0 3 0;
