#N canvas 584 204 764 629 10;
#N canvas 172 139 750 691 soma~ 1;
#X obj 124 199 inlet~;
#N canvas 0 0 450 300 (subpatch) 0;
#X array \$0-aux1 64 float 2;
#X coords 0 1 64 -1 200 140 1 0 0;
#X restore 18 30 graph;
#N canvas 0 0 450 300 (subpatch) 0;
#X array \$0-aux2 64 float 2;
#X coords 0 1 64 -1 200 140 1 0 0;
#X restore 233 31 graph;
#X obj 123 255 tabsend~ \$0-aux1;
#X obj 242 199 inlet~;
#X obj 241 255 tabsend~ \$0-aux2;
#X obj 322 332 bang~;
#X obj 409 335 loadbang;
#N canvas 613 169 623 703 soma_elemento 0;
#X obj 17 10 inlet;
#X obj 78 9 inlet;
#X obj 127 12 inlet;
#X obj 188 11 inlet;
#X floatatom 204 259 5 0 0 0 - - -;
#X obj 149 341 +;
#X floatatom 120 399 5 0 0 0 - - -;
#X obj 98 232 tabread;
#X msg 99 205 set \$1;
#X msg 203 205 set \$1;
#X obj 203 233 tabread;
#X obj 116 561 tabwrite;
#X obj 15 38 s x;
#X obj 81 38 s y;
#X obj 125 39 s z;
#X obj 100 179 r x;
#X obj 203 182 r y;
#X floatatom 101 262 5 0 0 0 - - -;
#X obj 191 37 s i;
#X floatatom 48 210 5 0 0 0 - - -;
#X obj 48 180 r le_x;
#X floatatom 254 208 5 0 0 0 - - -;
#X obj 254 178 r le_y;
#X text 50 150 Entrada 1 (x);
#X text 201 149 Entrada 2 (y);
#X text 14 58 Inlet 1: Seta nome do vetor de entrada 1 (x);
#X text 14 78 Inlet 2: Seta nome do vetor de entrada 2 (y);
#X text 15 99 Inlet 3: Seta nome do vetor de saida (z);
#X text 15 120 Inlet 4: Faz z[i] := x[i]+y[i] \, onde i eh o numero
recebido;
#X obj 146 283 r soma;
#X obj 70 498 r z;
#X obj 167 520 r seta_indice;
#X obj 349 21 r i;
#X obj 435 132 s le_x;
#X obj 436 159 s le_y;
#X obj 439 182 s soma;
#X obj 433 108 s seta_indice;
#X obj 439 209 s escreve;
#X obj 351 57 t b b f f f b;
#X obj 102 453 / 2;
#X msg 69 529 set \$1;
#X obj 19 310 print setou_x;
#X obj 280 282 print setou_y;
#X obj 61 610 print setou_z;
#X obj 198 561 print indice;
#X obj 135 488 spigot;
#X obj 201 339 r escreve;
#X msg 185 451 1;
#X obj 430 83 s reseta_spigot;
#X msg 226 451 0;
#X obj 226 425 r reseta_spigot;
#X obj 183 370 t b b;
#X obj 199 583 print escreveu;
#X text 249 365 O spigot serve para bloquear as mensagens ate ter recebido
a mensagem de escrita;
#X connect 0 0 12 0;
#X connect 1 0 13 0;
#X connect 2 0 14 0;
#X connect 3 0 18 0;
#X connect 4 0 5 1;
#X connect 5 0 6 0;
#X connect 6 0 39 0;
#X connect 7 0 17 0;
#X connect 8 0 7 0;
#X connect 8 0 41 0;
#X connect 9 0 10 0;
#X connect 9 0 42 0;
#X connect 10 0 4 0;
#X connect 15 0 8 0;
#X connect 16 0 9 0;
#X connect 17 0 5 0;
#X connect 19 0 7 0;
#X connect 20 0 19 0;
#X connect 21 0 10 0;
#X connect 22 0 21 0;
#X connect 29 0 5 0;
#X connect 30 0 40 0;
#X connect 31 0 11 1;
#X connect 31 0 44 0;
#X connect 32 0 38 0;
#X connect 38 0 37 0;
#X connect 38 1 35 0;
#X connect 38 2 34 0;
#X connect 38 3 33 0;
#X connect 38 4 36 0;
#X connect 38 5 48 0;
#X connect 39 0 45 0;
#X connect 40 0 11 0;
#X connect 40 0 43 0;
#X connect 45 0 11 0;
#X connect 45 0 52 0;
#X connect 46 0 51 0;
#X connect 47 0 45 1;
#X connect 49 0 45 1;
#X connect 50 0 49 0;
#X connect 51 0 6 0;
#X connect 51 1 47 0;
#X restore 197 464 pd soma_elemento;
#X obj 99 415 f \$0;
#X obj 252 407 f \$0;
#X floatatom 329 420 5 0 0 0 - - -;
#N canvas 617 198 524 574 conta_ate_X 0;
#X obj 64 107 float;
#X obj 116 234 sel 1;
#X obj 117 206 <;
#X obj 207 173 - 1;
#X obj 213 234 print amostra;
#X obj 86 133 + 1;
#X obj 116 80 r prox_valor;
#X obj 95 159 s prox_valor;
#X obj 100 292 s muda_prox;
#X obj 121 52 r muda_prox;
#X obj 37 168 t f f;
#X msg 68 68 0;
#X obj 38 -49 inlet;
#X obj 92 -35 inlet;
#X obj 93 -3 s N_TOTAL;
#X obj 206 134 receive N_TOTAL;
#X obj 55 334 outlet;
#X connect 0 0 5 0;
#X connect 0 0 10 0;
#X connect 1 0 8 0;
#X connect 2 0 1 0;
#X connect 3 0 2 1;
#X connect 3 0 4 0;
#X connect 5 0 7 0;
#X connect 6 0 0 1;
#X connect 9 0 0 0;
#X connect 10 0 2 0;
#X connect 10 1 16 0;
#X connect 11 0 0 0;
#X connect 12 0 11 0;
#X connect 13 0 14 0;
#X connect 15 0 3 0;
#X restore 329 390 pd conta_ate_X;
#X obj 185 362 loadbang;
#X text 127 339 Seta os nomes dos vetores;
#X msg 410 365 64;
#X text 374 312 Seta o tamanho da amostra;
#X msg 99 438 s \$1-aux1;
#X obj 176 409 f \$0;
#X msg 176 432 s \$1-aux2;
#X msg 252 430 s \$1-resp;
#N canvas 0 0 450 300 (subpatch) 0;
#X array \$0-resp 64 float 2;
#X coords 0 1 64 -1 200 140 1 0 0;
#X restore 497 33 graph;
#X obj 157 574 outlet~;
#X obj 160 537 tabreceive~ \$0-resp;
#X connect 0 0 3 0;
#X connect 4 0 5 0;
#X connect 6 0 12 0;
#X connect 7 0 15 0;
#X connect 9 0 17 0;
#X connect 10 0 20 0;
#X connect 11 0 8 3;
#X connect 12 0 11 0;
#X connect 13 0 9 0;
#X connect 13 0 10 0;
#X connect 13 0 18 0;
#X connect 15 0 12 1;
#X connect 17 0 8 0;
#X connect 18 0 19 0;
#X connect 19 0 8 1;
#X connect 20 0 8 2;
#X connect 23 0 22 0;
#X restore 79 108 pd soma~;
#X obj 38 26 osc~ 440;
#X obj 131 26 osc~ 660;
#X obj 76 177 output~;
#X obj 218 24 osc~ 440;
#X obj 311 24 osc~ 660;
#X obj 253 102 +~;
#X obj 226 174 output~;
#X connect 0 0 3 0;
#X connect 0 0 3 1;
#X connect 1 0 0 0;
#X connect 2 0 0 1;
#X connect 4 0 6 0;
#X connect 5 0 6 1;
#X connect 6 0 7 0;
#X connect 6 0 7 1;
