#N canvas 659 218 501 442 10;
#N canvas 440 168 732 691 soma~ 0;
#X obj 21 184 inlet~;
#N canvas 0 0 450 300 (subpatch) 0;
#X array \$0-aux1 64 float 2;
#X coords 0 1 64 -1 200 140 1 0 0;
#X restore 18 30 graph;
#N canvas 0 0 450 300 (subpatch) 0;
#X array \$0-aux2 64 float 2;
#X coords 0 1 64 -1 200 140 1 0 0;
#X restore 233 31 graph;
#X obj 20 240 tabsend~ \$0-aux1;
#X obj 139 184 inlet~;
#X obj 138 240 tabsend~ \$0-aux2;
#X obj 260 258 bang~;
#X obj 76 307 loadbang;
#N canvas 604 184 623 703 soma_elemento 0;
#X obj 17 10 inlet;
#X obj 78 9 inlet;
#X obj 127 12 inlet;
#X obj 188 11 inlet;
#X floatatom 204 259 5 0 0 0 - - -;
#X obj 149 341 +;
#X floatatom 120 399 5 0 0 0 - - -;
#X obj 98 232 tabread;
#X msg 99 205 set \$1;
#X msg 203 205 set \$1;
#X obj 203 233 tabread;
#X obj 116 561 tabwrite;
#X obj 15 38 s x;
#X obj 81 38 s y;
#X obj 125 39 s z;
#X obj 100 179 r x;
#X obj 203 182 r y;
#X floatatom 101 262 5 0 0 0 - - -;
#X obj 191 37 s i;
#X floatatom 48 210 5 0 0 0 - - -;
#X obj 48 180 r le_x;
#X floatatom 254 208 5 0 0 0 - - -;
#X obj 254 178 r le_y;
#X text 50 150 Entrada 1 (x);
#X text 201 149 Entrada 2 (y);
#X text 14 58 Inlet 1: Seta nome do vetor de entrada 1 (x);
#X text 14 78 Inlet 2: Seta nome do vetor de entrada 2 (y);
#X text 15 99 Inlet 3: Seta nome do vetor de saida (z);
#X text 15 120 Inlet 4: Faz z[i] := x[i]+y[i] \, onde i eh o numero
recebido;
#X obj 146 283 r soma;
#X obj 70 498 r z;
#X obj 167 520 r seta_indice;
#X obj 349 21 r i;
#X obj 435 132 s le_x;
#X obj 436 159 s le_y;
#X obj 439 182 s soma;
#X obj 433 108 s seta_indice;
#X obj 439 209 s escreve;
#X obj 351 57 t b b f f f b;
#X obj 102 453 / 2;
#X msg 69 529 set \$1;
#X obj 19 310 print setou_x;
#X obj 280 282 print setou_y;
#X obj 61 610 print setou_z;
#X obj 198 561 print indice;
#X obj 135 488 spigot;
#X obj 201 339 r escreve;
#X msg 185 451 1;
#X obj 430 83 s reseta_spigot;
#X msg 226 451 0;
#X obj 226 425 r reseta_spigot;
#X obj 183 370 t b b;
#X obj 199 583 print escreveu;
#X text 249 365 O spigot serve para bloquear as mensagens ate ter recebido
a mensagem de escrita;
#X connect 0 0 12 0;
#X connect 1 0 13 0;
#X connect 2 0 14 0;
#X connect 3 0 18 0;
#X connect 4 0 5 1;
#X connect 5 0 6 0;
#X connect 6 0 39 0;
#X connect 7 0 17 0;
#X connect 8 0 7 0;
#X connect 8 0 41 0;
#X connect 9 0 10 0;
#X connect 9 0 42 0;
#X connect 10 0 4 0;
#X connect 15 0 8 0;
#X connect 16 0 9 0;
#X connect 17 0 5 0;
#X connect 19 0 7 0;
#X connect 20 0 19 0;
#X connect 21 0 10 0;
#X connect 22 0 21 0;
#X connect 29 0 5 0;
#X connect 30 0 40 0;
#X connect 31 0 11 1;
#X connect 32 0 38 0;
#X connect 38 0 37 0;
#X connect 38 1 35 0;
#X connect 38 2 34 0;
#X connect 38 3 33 0;
#X connect 38 4 36 0;
#X connect 38 5 48 0;
#X connect 39 0 45 0;
#X connect 40 0 11 0;
#X connect 40 0 43 0;
#X connect 45 0 11 0;
#X connect 46 0 51 0;
#X connect 47 0 45 1;
#X connect 49 0 45 1;
#X connect 50 0 49 0;
#X connect 51 0 6 0;
#X connect 51 1 47 0;
#X restore 114 525 pd soma_elemento;
#X obj 16 476 f \$0;
#X obj 169 468 f \$0;
#X floatatom 238 499 5 0 0 0 - - -;
#N canvas 592 259 524 574 conta_ate_X 0;
#X obj 64 107 float;
#X obj 116 234 sel 1;
#X obj 117 206 <;
#X obj 207 173 - 1;
#X obj 86 133 + 1;
#X obj 116 80 r prox_valor;
#X obj 95 159 s prox_valor;
#X obj 100 292 s muda_prox;
#X obj 121 52 r muda_prox;
#X obj 37 168 t f f;
#X msg 68 68 0;
#X obj 38 -49 inlet;
#X obj 92 -35 inlet;
#X obj 93 -3 s N_TOTAL;
#X obj 206 134 receive N_TOTAL;
#X obj 55 334 outlet;
#X obj 213 234 print TamanhoDeBlocoAtual;
#X connect 0 0 4 0;
#X connect 0 0 9 0;
#X connect 1 0 7 0;
#X connect 2 0 1 0;
#X connect 3 0 2 1;
#X connect 3 0 16 0;
#X connect 4 0 6 0;
#X connect 5 0 0 1;
#X connect 8 0 0 0;
#X connect 9 0 2 0;
#X connect 9 1 15 0;
#X connect 10 0 0 0;
#X connect 11 0 10 0;
#X connect 12 0 13 0;
#X connect 14 0 3 0;
#X restore 238 469 pd conta_ate_X;
#X obj 102 423 loadbang;
#X text 44 400 Seta os nomes dos vetores;
#X msg 77 337 64;
#X msg 16 499 s \$1-aux1;
#X obj 93 470 f \$0;
#X msg 93 493 s \$1-aux2;
#X msg 169 491 s \$1-resp;
#N canvas 0 0 450 300 (subpatch) 0;
#X array \$0-resp 64 float 2;
#X coords 0 1 64 -1 200 140 1 0 0;
#X restore 497 33 graph;
#X obj 62 597 outlet~;
#X obj 62 572 tabreceive~ \$0-resp;
#X obj 306 361 timer;
#X obj 306 384 * 44.1;
#X obj 306 409 select;
#X floatatom 359 409 5 0 0 0 - - -;
#X obj 287 328 t b b b;
#N canvas 104 212 496 433 realoca_vetores 0;
#X obj 100 114 f \$0;
#X obj 42 181 pack s f;
#X msg 42 151 \$1-aux1;
#X obj 98 76 t b f;
#X msg 121 256 \; \$1 resize \$2;
#X msg 42 211 s \$1 \$2;
#X obj 107 180 pack s f;
#X obj 173 179 pack s f;
#X msg 107 150 \$1-aux2;
#X msg 173 149 \$1-resp;
#X msg 123 214 s \$1 \$2;
#X msg 200 216 s \$1 \$2;
#X obj 98 49 inlet;
#X text 29 18 Inlet 1: Tamanho novo dos vetores;
#X text 273 141 As mensagens são do tipo: s <nome_do_vetor> <novo_tamanho>
;
#X obj 273 263 print Mudou;
#X connect 0 0 2 0;
#X connect 0 0 8 0;
#X connect 0 0 9 0;
#X connect 1 0 5 0;
#X connect 2 0 1 0;
#X connect 3 0 0 0;
#X connect 3 1 1 1;
#X connect 3 1 6 1;
#X connect 3 1 7 1;
#X connect 5 0 4 0;
#X connect 6 0 10 0;
#X connect 7 0 11 0;
#X connect 8 0 6 0;
#X connect 9 0 7 0;
#X connect 10 0 4 0;
#X connect 11 0 4 0;
#X connect 12 0 3 0;
#X restore 388 443 pd realoca_vetores;
#X text 18 265 Seta o tamanho inicial da amostra;
#X obj 78 370 s N_INICIAL;
#X obj 386 408 r N_INICIAL;
#X text 380 368 O select é responsável por chamar o realoca_vetores
apenas quando o N muda.;
#X obj 104 338 s reset_spigots;
#N canvas 132 289 392 273 primeira_ou_segunda 0;
#X obj 177 158 spigot;
#X msg 213 122 1;
#X obj 50 155 spigot 1;
#X msg 51 122 0;
#X obj 126 79 t b b;
#X msg 86 122 1;
#X msg 185 123 0;
#X obj 93 17 inlet;
#X obj 150 18 inlet;
#X obj 150 39 t b b;
#X obj 177 183 outlet;
#X obj 50 178 outlet;
#X text 175 198 Todos os outros passam por aqui.;
#X text 16 196 Somente o primeiro bang passa por aqui.;
#X connect 0 0 10 0;
#X connect 1 0 0 1;
#X connect 2 0 11 0;
#X connect 3 0 2 1;
#X connect 4 0 1 0;
#X connect 4 0 3 0;
#X connect 4 1 0 0;
#X connect 4 1 2 0;
#X connect 5 0 2 1;
#X connect 6 0 0 1;
#X connect 7 0 4 0;
#X connect 8 0 9 0;
#X connect 9 0 6 0;
#X connect 9 1 5 0;
#X restore 228 292 pd primeira_ou_segunda;
#X obj 355 258 r reset_spigots;
#X text 368 334 Na primeira vez \, seta os vetores \, o timer e conta_ate_X
;
#X obj 228 327 t b b b;
#X obj 75 285 bng 15 250 50 0 empty empty empty 17 7 0 10 -262144 -1
-1;
#X connect 0 0 3 0;
#X connect 4 0 5 0;
#X connect 6 0 34 0;
#X connect 7 0 15 0;
#X connect 7 0 33 0;
#X connect 9 0 16 0;
#X connect 10 0 19 0;
#X connect 11 0 8 3;
#X connect 12 0 11 0;
#X connect 13 0 9 0;
#X connect 13 0 10 0;
#X connect 13 0 17 0;
#X connect 15 0 30 0;
#X connect 16 0 8 0;
#X connect 17 0 18 0;
#X connect 18 0 8 1;
#X connect 19 0 8 2;
#X connect 22 0 21 0;
#X connect 23 0 24 0;
#X connect 24 0 25 0;
#X connect 25 1 26 0;
#X connect 26 0 25 1;
#X connect 26 0 28 0;
#X connect 26 0 12 1;
#X connect 27 0 12 0;
#X connect 27 1 23 0;
#X connect 27 2 23 1;
#X connect 31 0 12 1;
#X connect 34 0 37 0;
#X connect 34 1 27 0;
#X connect 35 0 34 1;
#X connect 37 0 12 0;
#X connect 37 1 23 0;
#X connect 37 2 13 0;
#X connect 38 0 7 0;
#X restore 79 108 pd soma~;
#X obj 38 26 osc~ 440;
#X obj 131 26 osc~ 660;
#X obj 76 177 output~;
#X obj 218 24 osc~ 440;
#X obj 311 24 osc~ 660;
#X obj 253 102 +~;
#X obj 226 174 output~;
#X text 35 264 Lista de subpatches: main --soma~ ----primeira_ou_segunda
----realoca_vetores ----conta_ate_X ----soma_elemento;
#X connect 0 0 3 0;
#X connect 0 0 3 1;
#X connect 1 0 0 0;
#X connect 2 0 0 1;
#X connect 4 0 6 0;
#X connect 5 0 6 1;
#X connect 6 0 7 0;
#X connect 6 0 7 1;
