#N canvas 135 337 790 390 10;
#X obj 302 201 osc~;
#X obj 303 235 output~;
#X obj 302 137 *~ 200;
#X obj 302 166 +~ 400;
#X msg 301 75 300;
#X obj 301 106 osc~;
#X text 356 135 [-200...+200] 300x/seg;
#X text 339 106 oscilador entre [-1...+1] 300x/seg;
#X text 352 166 [+200...+600] 300x/seg <-- ESTA e' a frequencia instantanea
do oscilador que ouvimos;
#X floatatom 63 115 5 0 0 0 - - -;
#X msg 44 65 300;
#X msg 130 70 600;
#X obj 50 39 bng 15 250 50 0 empty empty empty 17 7 0 10 -262144 -1
-1;
#X obj 139 43 bng 15 250 50 0 empty empty empty 17 7 0 10 -262144 -1
-1;
#X obj 182 37 bng 15 250 50 0 empty empty empty 17 7 0 10 -262144 -1
-1;
#X msg 173 64 1200;
#X obj 236 41 bng 15 250 50 0 empty empty empty 17 7 0 10 -262144 -1
-1;
#X msg 227 68 10000;
#X msg 82 71 440;
#X obj 80 40 loadbang;
#X obj 110 176 sig~;
#X obj 121 267 output~;
#X obj 125 218 oscilador~;
#X obj 300 40 loadbang;
#X connect 0 0 1 0;
#X connect 2 0 3 0;
#X connect 3 0 0 0;
#X connect 3 0 22 0;
#X connect 4 0 5 0;
#X connect 5 0 2 0;
#X connect 9 0 20 0;
#X connect 10 0 9 0;
#X connect 11 0 9 0;
#X connect 12 0 10 0;
#X connect 13 0 11 0;
#X connect 14 0 15 0;
#X connect 15 0 9 0;
#X connect 16 0 17 0;
#X connect 17 0 9 0;
#X connect 18 0 9 0;
#X connect 19 0 18 0;
#X connect 22 0 21 0;
#X connect 22 0 21 1;
#X connect 23 0 4 0;
