#N canvas 150 297 450 300 10;
#X obj 93 64 osc~ 440;
#X obj 171 67 line~;
#X floatatom 230 42 5 0 0 0 - - -;
#X obj 157 17 hsl 128 15 0 -1 0 0 empty empty empty -2 -8 0 10 -262144
-1 -1 0 1;
#X obj 128 156 output~;
#X obj 125 105 multiplica~;
#X connect 0 0 5 0;
#X connect 1 0 5 1;
#X connect 2 0 1 0;
#X connect 3 0 2 0;
#X connect 5 0 4 0;
#X connect 5 0 4 1;
